<svg xmlns="http://www.w3.org/2000/svg" xmlns:xlink="http://www.w3.org/1999/xlink" version="1.1" class="marks" width="998" height="481" viewBox="0 0 998 481"><rect width="998" height="481" fill="#faf7f2"/><g fill="none" stroke-miterlimit="10" transform="translate(54,49)"><g class="mark-group role-frame root" role="graphics-object" aria-roledescription="group mark container"><g transform="translate(0,0)"><path class="background" aria-hidden="true" d="M0,0h920v380h-920Z"/><g><g class="mark-group role-axis" aria-hidden="true"><g transform="translate(0.5,0.5)"><path class="background" aria-hidden="true" d="M0,0h0v0h0Z" pointer-events="none"/><g><g class="mark-rule role-axis-grid" pointer-events="none"><line transform="translate(0,380)" x2="920" y2="0" stroke="#e7e5e4" stroke-width="1" opacity="1"/><line transform="translate(0,353)" x2="920" y2="0" stroke="#e7e5e4" stroke-width="1" opacity="1"/><line transform="translate(0,326)" x2="920" y2="0" stroke="#e7e5e4" stroke-width="1" opacity="1"/><line transform="translate(0,299)" x2="920" y2="0" stroke="#e7e5e4" stroke-width="1" opacity="1"/><line transform="translate(0,271)" x2="920" y2="0" stroke="#e7e5e4" stroke-width="1" opacity="1"/><line transform="translate(0,244)" x2="920" y2="0" stroke="#e7e5e4" stroke-width="1" opacity="1"/><line transform="translate(0,217)" x2="920" y2="0" stroke="#e7e5e4" stroke-width="1" opacity="1"/><line transform="translate(0,190)" x2="920" y2="0" stroke="#e7e5e4" stroke-width="1" opacity="1"/><line transform="translate(0,163)" x2="920" y2="0" stroke="#e7e5e4" stroke-width="1" opacity="1"/><line transform="translate(0,136)" x2="920" y2="0" stroke="#e7e5e4" stroke-width="1" opacity="1"/><line transform="translate(0,109)" x2="920" y2="0" stroke="#e7e5e4" stroke-width="1" opacity="1"/><line transform="translate(0,81)" x2="920" y2="0" stroke="#e7e5e4" stroke-width="1" opacity="1"/><line transform="translate(0,54)" x2="920" y2="0" stroke="#e7e5e4" stroke-width="1" opacity="1"/><line transform="translate(0,27)" x2="920" y2="0" stroke="#e7e5e4" stroke-width="1" opacity="1"/><line transform="translate(0,0)" x2="920" y2="0" stroke="#e7e5e4" stroke-width="1" opacity="1"/></g></g><path class="foreground" aria-hidden="true" d="" pointer-events="none" display="none"/></g></g><g class="mark-group role-axis" role="graphics-symbol" aria-roledescription="axis" aria-label="X-axis for a discrete scale with 40 values: 2026-05-05, 2026-05-06, 2026-05-07, 2026-05-08, 2026-05-09, ending with 2026-06-13"><g transform="translate(0.5,380.5)"><path class="background" aria-hidden="true" d="M0,0h0v0h0Z" pointer-events="none"/><g><g class="mark-text role-axis-label" pointer-events="none"><text text-anchor="end" transform="translate(11.5,6) rotate(322) translate(0,8)" font-family="ui-sans-serif, system-ui, &quot;Segoe UI&quot;, Roboto, Helvetica, Arial, sans-serif" font-size="10px" fill="#57534e" opacity="1">May  5</text><text text-anchor="end" transform="translate(34.5,6) rotate(322) translate(0,8)" font-family="ui-sans-serif, system-ui, &quot;Segoe UI&quot;, Roboto, Helvetica, Arial, sans-serif" font-size="10px" fill="#57534e" opacity="0">May  6</text><text text-anchor="end" transform="translate(57.5,6) rotate(322) translate(0,8)" font-family="ui-sans-serif, system-ui, &quot;Segoe UI&quot;, Roboto, Helvetica, Arial, sans-serif" font-size="10px" fill="#57534e" opacity="1">May  7</text><text text-anchor="end" transform="translate(80.5,6) rotate(322) translate(0,8)" font-family="ui-sans-serif, system-ui, &quot;Segoe UI&quot;, Roboto, Helvetica, Arial, sans-serif" font-size="10px" fill="#57534e" opacity="0">May  8</text><text text-anchor="end" transform="translate(103.5,6) rotate(322) translate(0,8)" font-family="ui-sans-serif, system-ui, &quot;Segoe UI&quot;, Roboto, Helvetica, Arial, sans-serif" font-size="10px" fill="#57534e" opacity="1">May  9</text><text text-anchor="end" transform="translate(126.5,6) rotate(322) translate(0,8)" font-family="ui-sans-serif, system-ui, &quot;Segoe UI&quot;, Roboto, Helvetica, Arial, sans-serif" font-size="10px" fill="#57534e" opacity="0">May 10</text><text text-anchor="end" transform="translate(149.5,6) rotate(322) translate(0,8)" font-family="ui-sans-serif, system-ui, &quot;Segoe UI&quot;, Roboto, Helvetica, Arial, sans-serif" font-size="10px" fill="#57534e" opacity="1">May 11</text><text text-anchor="end" transform="translate(172.5,6) rotate(322) translate(0,8)" font-family="ui-sans-serif, system-ui, &quot;Segoe UI&quot;, Roboto, Helvetica, Arial, sans-serif" font-size="10px" fill="#57534e" opacity="0">May 12</text><text text-anchor="end" transform="translate(195.5,6) rotate(322) translate(0,8)" font-family="ui-sans-serif, system-ui, &quot;Segoe UI&quot;, Roboto, Helvetica, Arial, sans-serif" font-size="10px" fill="#57534e" opacity="1">May 13</text><text text-anchor="end" transform="translate(218.5,6) rotate(322) translate(0,8)" font-family="ui-sans-serif, system-ui, &quot;Segoe UI&quot;, Roboto, Helvetica, Arial, sans-serif" font-size="10px" fill="#57534e" opacity="0">May 14</text><text text-anchor="end" transform="translate(241.5,6) rotate(322) translate(0,8)" font-family="ui-sans-serif, system-ui, &quot;Segoe UI&quot;, Roboto, Helvetica, Arial, sans-serif" font-size="10px" fill="#57534e" opacity="1">May 15</text><text text-anchor="end" transform="translate(264.5,6) rotate(322) translate(0,8)" font-family="ui-sans-serif, system-ui, &quot;Segoe UI&quot;, Roboto, Helvetica, Arial, sans-serif" font-size="10px" fill="#57534e" opacity="0">May 16</text><text text-anchor="end" transform="translate(287.5,6) rotate(322) translate(0,8)" font-family="ui-sans-serif, system-ui, &quot;Segoe UI&quot;, Roboto, Helvetica, Arial, sans-serif" font-size="10px" fill="#57534e" opacity="1">May 17</text><text text-anchor="end" transform="translate(310.5,6) rotate(322) translate(0,8)" font-family="ui-sans-serif, system-ui, &quot;Segoe UI&quot;, Roboto, Helvetica, Arial, sans-serif" font-size="10px" fill="#57534e" opacity="0">May 18</text><text text-anchor="end" transform="translate(333.5,6) rotate(322) translate(0,8)" font-family="ui-sans-serif, system-ui, &quot;Segoe UI&quot;, Roboto, Helvetica, Arial, sans-serif" font-size="10px" fill="#57534e" opacity="1">May 19</text><text text-anchor="end" transform="translate(356.5,6) rotate(322) translate(0,8)" font-family="ui-sans-serif, system-ui, &quot;Segoe UI&quot;, Roboto, Helvetica, Arial, sans-serif" font-size="10px" fill="#57534e" opacity="0">May 20</text><text text-anchor="end" transform="translate(379.5,6) rotate(322) translate(0,8)" font-family="ui-sans-serif, system-ui, &quot;Segoe UI&quot;, Roboto, Helvetica, Arial, sans-serif" font-size="10px" fill="#57534e" opacity="1">May 21</text><text text-anchor="end" transform="translate(402.5,6) rotate(322) translate(0,8)" font-family="ui-sans-serif, system-ui, &quot;Segoe UI&quot;, Roboto, Helvetica, Arial, sans-serif" font-size="10px" fill="#57534e" opacity="0">May 22</text><text text-anchor="end" transform="translate(425.5,6) rotate(322) translate(0,8)" font-family="ui-sans-serif, system-ui, &quot;Segoe UI&quot;, Roboto, Helvetica, Arial, sans-serif" font-size="10px" fill="#57534e" opacity="1">May 23</text><text text-anchor="end" transform="translate(448.5,6) rotate(322) translate(0,8)" font-family="ui-sans-serif, system-ui, &quot;Segoe UI&quot;, Roboto, Helvetica, Arial, sans-serif" font-size="10px" fill="#57534e" opacity="0">May 24</text><text text-anchor="end" transform="translate(471.5,6) rotate(322) translate(0,8)" font-family="ui-sans-serif, system-ui, &quot;Segoe UI&quot;, Roboto, Helvetica, Arial, sans-serif" font-size="10px" fill="#57534e" opacity="1">May 25</text><text text-anchor="end" transform="translate(494.5,6) rotate(322) translate(0,8)" font-family="ui-sans-serif, system-ui, &quot;Segoe UI&quot;, Roboto, Helvetica, Arial, sans-serif" font-size="10px" fill="#57534e" opacity="0">May 26</text><text text-anchor="end" transform="translate(517.5,6) rotate(322) translate(0,8)" font-family="ui-sans-serif, system-ui, &quot;Segoe UI&quot;, Roboto, Helvetica, Arial, sans-serif" font-size="10px" fill="#57534e" opacity="1">May 27</text><text text-anchor="end" transform="translate(540.5,6) rotate(322) translate(0,8)" font-family="ui-sans-serif, system-ui, &quot;Segoe UI&quot;, Roboto, Helvetica, Arial, sans-serif" font-size="10px" fill="#57534e" opacity="0">May 28</text><text text-anchor="end" transform="translate(563.5,6) rotate(322) translate(0,8)" font-family="ui-sans-serif, system-ui, &quot;Segoe UI&quot;, Roboto, Helvetica, Arial, sans-serif" font-size="10px" fill="#57534e" opacity="1">May 29</text><text text-anchor="end" transform="translate(586.5,6) rotate(322) translate(0,8)" font-family="ui-sans-serif, system-ui, &quot;Segoe UI&quot;, Roboto, Helvetica, Arial, sans-serif" font-size="10px" fill="#57534e" opacity="0">May 30</text><text text-anchor="end" transform="translate(609.5,6) rotate(322) translate(0,8)" font-family="ui-sans-serif, system-ui, &quot;Segoe UI&quot;, Roboto, Helvetica, Arial, sans-serif" font-size="10px" fill="#57534e" opacity="1">May 31</text><text text-anchor="end" transform="translate(632.5,6) rotate(322) translate(0,8)" font-family="ui-sans-serif, system-ui, &quot;Segoe UI&quot;, Roboto, Helvetica, Arial, sans-serif" font-size="10px" fill="#57534e" opacity="0">Jun  1</text><text text-anchor="end" transform="translate(655.5,6) rotate(322) translate(0,8)" font-family="ui-sans-serif, system-ui, &quot;Segoe UI&quot;, Roboto, Helvetica, Arial, sans-serif" font-size="10px" fill="#57534e" opacity="1">Jun  2</text><text text-anchor="end" transform="translate(678.5,6) rotate(322) translate(0,8)" font-family="ui-sans-serif, system-ui, &quot;Segoe UI&quot;, Roboto, Helvetica, Arial, sans-serif" font-size="10px" fill="#57534e" opacity="0">Jun  3</text><text text-anchor="end" transform="translate(701.5,6) rotate(322) translate(0,8)" font-family="ui-sans-serif, system-ui, &quot;Segoe UI&quot;, Roboto, Helvetica, Arial, sans-serif" font-size="10px" fill="#57534e" opacity="1">Jun  4</text><text text-anchor="end" transform="translate(724.5,6) rotate(322) translate(0,8)" font-family="ui-sans-serif, system-ui, &quot;Segoe UI&quot;, Roboto, Helvetica, Arial, sans-serif" font-size="10px" fill="#57534e" opacity="0">Jun  5</text><text text-anchor="end" transform="translate(747.5,6) rotate(322) translate(0,8)" font-family="ui-sans-serif, system-ui, &quot;Segoe UI&quot;, Roboto, Helvetica, Arial, sans-serif" font-size="10px" fill="#57534e" opacity="1">Jun  6</text><text text-anchor="end" transform="translate(770.5,6) rotate(322) translate(0,8)" font-family="ui-sans-serif, system-ui, &quot;Segoe UI&quot;, Roboto, Helvetica, Arial, sans-serif" font-size="10px" fill="#57534e" opacity="0">Jun  7</text><text text-anchor="end" transform="translate(793.5,6) rotate(322) translate(0,8)" font-family="ui-sans-serif, system-ui, &quot;Segoe UI&quot;, Roboto, Helvetica, Arial, sans-serif" font-size="10px" fill="#57534e" opacity="1">Jun  8</text><text text-anchor="end" transform="translate(816.5,6) rotate(322) translate(0,8)" font-family="ui-sans-serif, system-ui, &quot;Segoe UI&quot;, Roboto, Helvetica, Arial, sans-serif" font-size="10px" fill="#57534e" opacity="0">Jun  9</text><text text-anchor="end" transform="translate(839.5,6) rotate(322) translate(0,8)" font-family="ui-sans-serif, system-ui, &quot;Segoe UI&quot;, Roboto, Helvetica, Arial, sans-serif" font-size="10px" fill="#57534e" opacity="1">Jun 10</text><text text-anchor="end" transform="translate(862.5,6) rotate(322) translate(0,8)" font-family="ui-sans-serif, system-ui, &quot;Segoe UI&quot;, Roboto, Helvetica, Arial, sans-serif" font-size="10px" fill="#57534e" opacity="0">Jun 11</text><text text-anchor="end" transform="translate(885.5,6) rotate(322) translate(0,8)" font-family="ui-sans-serif, system-ui, &quot;Segoe UI&quot;, Roboto, Helvetica, Arial, sans-serif" font-size="10px" fill="#57534e" opacity="1">Jun 12</text><text text-anchor="end" transform="translate(908.5,6) rotate(322) translate(0,8)" font-family="ui-sans-serif, system-ui, &quot;Segoe UI&quot;, Roboto, Helvetica, Arial, sans-serif" font-size="10px" fill="#57534e" opacity="0">Jun 13</text></g></g><path class="foreground" aria-hidden="true" d="" pointer-events="none" display="none"/></g></g><g class="mark-group role-axis" role="graphics-symbol" aria-roledescription="axis" aria-label="Y-axis titled 'Cumulative count' for a linear scale with values from 0 to 140"><g transform="translate(0.5,0.5)"><path class="background" aria-hidden="true" d="M0,0h0v0h0Z" pointer-events="none"/><g><g class="mark-rule role-axis-tick" pointer-events="none"><line transform="translate(0,380)" x2="-5" y2="0" stroke="#d6d3d1" stroke-width="1" opacity="1"/><line transform="translate(0,353)" x2="-5" y2="0" stroke="#d6d3d1" stroke-width="1" opacity="1"/><line transform="translate(0,326)" x2="-5" y2="0" stroke="#d6d3d1" stroke-width="1" opacity="1"/><line transform="translate(0,299)" x2="-5" y2="0" stroke="#d6d3d1" stroke-width="1" opacity="1"/><line transform="translate(0,271)" x2="-5" y2="0" stroke="#d6d3d1" stroke-width="1" opacity="1"/><line transform="translate(0,244)" x2="-5" y2="0" stroke="#d6d3d1" stroke-width="1" opacity="1"/><line transform="translate(0,217)" x2="-5" y2="0" stroke="#d6d3d1" stroke-width="1" opacity="1"/><line transform="translate(0,190)" x2="-5" y2="0" stroke="#d6d3d1" stroke-width="1" opacity="1"/><line transform="translate(0,163)" x2="-5" y2="0" stroke="#d6d3d1" stroke-width="1" opacity="1"/><line transform="translate(0,136)" x2="-5" y2="0" stroke="#d6d3d1" stroke-width="1" opacity="1"/><line transform="translate(0,109)" x2="-5" y2="0" stroke="#d6d3d1" stroke-width="1" opacity="1"/><line transform="translate(0,81)" x2="-5" y2="0" stroke="#d6d3d1" stroke-width="1" opacity="1"/><line transform="translate(0,54)" x2="-5" y2="0" stroke="#d6d3d1" stroke-width="1" opacity="1"/><line transform="translate(0,27)" x2="-5" y2="0" stroke="#d6d3d1" stroke-width="1" opacity="1"/><line transform="translate(0,0)" x2="-5" y2="0" stroke="#d6d3d1" stroke-width="1" opacity="1"/></g><g class="mark-text role-axis-label" pointer-events="none"><text text-anchor="end" transform="translate(-7,383)" font-family="ui-sans-serif, system-ui, &quot;Segoe UI&quot;, Roboto, Helvetica, Arial, sans-serif" font-size="10px" fill="#57534e" opacity="1">0</text><text text-anchor="end" transform="translate(-7,355.8571428571429)" font-family="ui-sans-serif, system-ui, &quot;Segoe UI&quot;, Roboto, Helvetica, Arial, sans-serif" font-size="10px" fill="#57534e" opacity="1">10</text><text text-anchor="end" transform="translate(-7,328.7142857142857)" font-family="ui-sans-serif, system-ui, &quot;Segoe UI&quot;, Roboto, Helvetica, Arial, sans-serif" font-size="10px" fill="#57534e" opacity="1">20</text><text text-anchor="end" transform="translate(-7,301.57142857142856)" font-family="ui-sans-serif, system-ui, &quot;Segoe UI&quot;, Roboto, Helvetica, Arial, sans-serif" font-size="10px" fill="#57534e" opacity="1">30</text><text text-anchor="end" transform="translate(-7,274.42857142857144)" font-family="ui-sans-serif, system-ui, &quot;Segoe UI&quot;, Roboto, Helvetica, Arial, sans-serif" font-size="10px" fill="#57534e" opacity="1">40</text><text text-anchor="end" transform="translate(-7,247.28571428571425)" font-family="ui-sans-serif, system-ui, &quot;Segoe UI&quot;, Roboto, Helvetica, Arial, sans-serif" font-size="10px" fill="#57534e" opacity="1">50</text><text text-anchor="end" transform="translate(-7,220.14285714285714)" font-family="ui-sans-serif, system-ui, &quot;Segoe UI&quot;, Roboto, Helvetica, Arial, sans-serif" font-size="10px" fill="#57534e" opacity="1">60</text><text text-anchor="end" transform="translate(-7,193)" font-family="ui-sans-serif, system-ui, &quot;Segoe UI&quot;, Roboto, Helvetica, Arial, sans-serif" font-size="10px" fill="#57534e" opacity="1">70</text><text text-anchor="end" transform="translate(-7,165.85714285714286)" font-family="ui-sans-serif, system-ui, &quot;Segoe UI&quot;, Roboto, Helvetica, Arial, sans-serif" font-size="10px" fill="#57534e" opacity="1">80</text><text text-anchor="end" transform="translate(-7,138.7142857142857)" font-family="ui-sans-serif, system-ui, &quot;Segoe UI&quot;, Roboto, Helvetica, Arial, sans-serif" font-size="10px" fill="#57534e" opacity="1">90</text><text text-anchor="end" transform="translate(-7,111.57142857142857)" font-family="ui-sans-serif, system-ui, &quot;Segoe UI&quot;, Roboto, Helvetica, Arial, sans-serif" font-size="10px" fill="#57534e" opacity="1">100</text><text text-anchor="end" transform="translate(-7,84.42857142857143)" font-family="ui-sans-serif, system-ui, &quot;Segoe UI&quot;, Roboto, Helvetica, Arial, sans-serif" font-size="10px" fill="#57534e" opacity="1">110</text><text text-anchor="end" transform="translate(-7,57.285714285714306)" font-family="ui-sans-serif, system-ui, &quot;Segoe UI&quot;, Roboto, Helvetica, Arial, sans-serif" font-size="10px" fill="#57534e" opacity="1">120</text><text text-anchor="end" transform="translate(-7,30.14285714285713)" font-family="ui-sans-serif, system-ui, &quot;Segoe UI&quot;, Roboto, Helvetica, Arial, sans-serif" font-size="10px" fill="#57534e" opacity="1">130</text><text text-anchor="end" transform="translate(-7,3)" font-family="ui-sans-serif, system-ui, &quot;Segoe UI&quot;, Roboto, Helvetica, Arial, sans-serif" font-size="10px" fill="#57534e" opacity="1">140</text></g><g class="mark-rule role-axis-domain" pointer-events="none"><line transform="translate(0,380)" x2="0" y2="-380" stroke="#d6d3d1" stroke-width="1" opacity="1"/></g><g class="mark-text role-axis-title" pointer-events="none"><text text-anchor="middle" transform="translate(-35,190) rotate(-90) translate(0,-2)" font-family="ui-sans-serif, system-ui, &quot;Segoe UI&quot;, Roboto, Helvetica, Arial, sans-serif" font-size="11px" font-weight="bold" fill="#44403c" opacity="1">Cumulative count</text></g></g><path class="foreground" aria-hidden="true" d="" pointer-events="none" display="none"/></g></g><g class="mark-group role-scope layer_0_pathgroup" role="graphics-object" aria-roledescription="group mark container"><g transform="translate(0,0)"><path class="background" aria-hidden="true" d="M0,0h920v380h-920Z"/><g><g class="mark-line role-mark layer_0_marks" role="graphics-object" aria-roledescription="line mark container"><path aria-label="calendar_day: 2026-05-05; Cumulative count: 15; series: Labels" role="graphics-symbol" aria-roledescription="line mark" d="M11.5,339.286L34.5,339.286L34.5,317.571L57.5,317.571L57.5,317.571L80.5,317.571L80.5,274.143L103.5,274.143L103.5,274.143L126.5,274.143L126.5,225.286L149.5,225.286L149.5,225.286L172.5,225.286L172.5,225.286L195.5,225.286L195.5,225.286L218.5,225.286L218.5,171L241.5,171L241.5,171L264.5,171L264.5,171L287.5,171L287.5,171L310.5,171L310.5,171L333.5,171L333.5,171L356.5,171L356.5,171L379.5,171L379.5,171L402.5,171L402.5,171L425.5,171L425.5,171L448.5,171L448.5,171L471.5,171L471.5,171L494.5,171L494.5,171L517.5,171L517.5,171L540.5,171L540.5,171L563.5,171L563.5,171L586.5,171L586.5,171L609.5,171L609.5,171L632.5,171L632.5,171L655.5,171L655.5,171L678.5,171L678.5,171L701.5,171L701.5,171L724.5,171L724.5,171L747.5,171L747.5,162.857L770.5,162.857L770.5,162.857L793.5,162.857L793.5,162.857L816.5,162.857L816.5,162.857L839.5,162.857L839.5,138.429L862.5,138.429L862.5,138.429L885.5,138.429L885.5,138.429L908.5,138.429L908.5,138.429" stroke="#7c3aed" stroke-width="2.5" stroke-linecap="round" stroke-linejoin="round"/></g></g><path class="foreground" aria-hidden="true" d="" display="none"/></g><g transform="translate(0,0)"><path class="background" aria-hidden="true" d="M0,0h920v380h-920Z"/><g><g class="mark-line role-mark layer_0_marks" role="graphics-object" aria-roledescription="line mark container"><path aria-label="calendar_day: 2026-05-05; Cumulative count: 2; series: Scans" role="graphics-symbol" aria-roledescription="line mark" d="M11.5,374.571L34.5,374.571L34.5,369.143L57.5,369.143L57.5,361L80.5,361L80.5,355.571L103.5,355.571L103.5,328.429L126.5,328.429L126.5,304L149.5,304L149.5,271.429L172.5,271.429L172.5,247L195.5,247L195.5,225.286L218.5,225.286L218.5,195.429L241.5,195.429L241.5,181.857L264.5,181.857L264.5,162.857L287.5,162.857L287.5,154.714L310.5,154.714L310.5,141.143L333.5,141.143L333.5,138.429L356.5,138.429L356.5,116.714L379.5,116.714L379.5,100.429L402.5,100.429L402.5,92.286L425.5,92.286L425.5,81.429L448.5,81.429L448.5,78.714L471.5,78.714L471.5,76L494.5,76L494.5,70.571L517.5,70.571L517.5,70.571L540.5,70.571L540.5,70.571L563.5,70.571L563.5,67.857L586.5,67.857L586.5,59.714L609.5,59.714L609.5,59.714L632.5,59.714L632.5,59.714L655.5,59.714L655.5,54.286L678.5,54.286L678.5,51.571L701.5,51.571L701.5,51.571L724.5,51.571L724.5,43.429L747.5,43.429L747.5,43.429L770.5,43.429L770.5,40.714L793.5,40.714L793.5,35.286L816.5,35.286L816.5,27.143L839.5,27.143L839.5,27.143L862.5,27.143L862.5,19L885.5,19L885.5,10.857L908.5,10.857L908.5,10.857" stroke="#15803d" stroke-width="2.5" stroke-linecap="round" stroke-linejoin="round"/></g></g><path class="foreground" aria-hidden="true" d="" display="none"/></g></g><g class="mark-symbol role-mark layer_1_marks" role="graphics-object" aria-roledescription="symbol mark container"><path aria-label="calendar_day: 2026-05-05; Cumulative count: 15; series: Labels" role="graphics-symbol" aria-roledescription="point" transform="translate(11.5,339.2857142857143)" d="M4.61,0A4.61,4.61,0,1,1,-4.61,0A4.61,4.61,0,1,1,4.61,0" fill="#7c3aed" stroke="#faf7f2" stroke-width="2" opacity="1"/><path aria-label="calendar_day: 2026-05-05; Cumulative count: 2; series: Scans" role="graphics-symbol" aria-roledescription="point" transform="translate(11.5,374.5714285714286)" d="M4.61,0A4.61,4.61,0,1,1,-4.61,0A4.61,4.61,0,1,1,4.61,0" fill="#15803d" stroke="#faf7f2" stroke-width="2" opacity="1"/><path aria-label="calendar_day: 2026-05-06; Cumulative count: 23; series: Labels" role="graphics-symbol" aria-roledescription="point" transform="translate(34.5,317.57142857142856)" d="M4.61,0A4.61,4.61,0,1,1,-4.61,0A4.61,4.61,0,1,1,4.61,0" fill="#7c3aed" stroke="#faf7f2" stroke-width="2" opacity="1"/><path aria-label="calendar_day: 2026-05-06; Cumulative count: 4; series: Scans" role="graphics-symbol" aria-roledescription="point" transform="translate(34.5,369.14285714285717)" d="M4.61,0A4.61,4.61,0,1,1,-4.61,0A4.61,4.61,0,1,1,4.61,0" fill="#15803d" stroke="#faf7f2" stroke-width="2" opacity="1"/><path aria-label="calendar_day: 2026-05-07; Cumulative count: 23; series: Labels" role="graphics-symbol" aria-roledescription="point" transform="translate(57.5,317.57142857142856)" d="M4.61,0A4.61,4.61,0,1,1,-4.61,0A4.61,4.61,0,1,1,4.61,0" fill="#7c3aed" stroke="#faf7f2" stroke-width="2" opacity="1"/><path aria-label="calendar_day: 2026-05-07; Cumulative count: 7; series: Scans" role="graphics-symbol" aria-roledescription="point" transform="translate(57.5,361)" d="M4.61,0A4.61,4.61,0,1,1,-4.61,0A4.61,4.61,0,1,1,4.61,0" fill="#15803d" stroke="#faf7f2" stroke-width="2" opacity="1"/><path aria-label="calendar_day: 2026-05-08; Cumulative count: 39; series: Labels" role="graphics-symbol" aria-roledescription="point" transform="translate(80.5,274.14285714285717)" d="M4.61,0A4.61,4.61,0,1,1,-4.61,0A4.61,4.61,0,1,1,4.61,0" fill="#7c3aed" stroke="#faf7f2" stroke-width="2" opacity="1"/><path aria-label="calendar_day: 2026-05-08; Cumulative count: 9; series: Scans" role="graphics-symbol" aria-roledescription="point" transform="translate(80.5,355.57142857142856)" d="M4.61,0A4.61,4.61,0,1,1,-4.61,0A4.61,4.61,0,1,1,4.61,0" fill="#15803d" stroke="#faf7f2" stroke-width="2" opacity="1"/><path aria-label="calendar_day: 2026-05-09; Cumulative count: 39; series: Labels" role="graphics-symbol" aria-roledescription="point" transform="translate(103.5,274.14285714285717)" d="M4.61,0A4.61,4.61,0,1,1,-4.61,0A4.61,4.61,0,1,1,4.61,0" fill="#7c3aed" stroke="#faf7f2" stroke-width="2" opacity="1"/><path aria-label="calendar_day: 2026-05-09; Cumulative count: 19; series: Scans" role="graphics-symbol" aria-roledescription="point" transform="translate(103.5,328.42857142857144)" d="M4.61,0A4.61,4.61,0,1,1,-4.61,0A4.61,4.61,0,1,1,4.61,0" fill="#15803d" stroke="#faf7f2" stroke-width="2" opacity="1"/><path aria-label="calendar_day: 2026-05-10; Cumulative count: 57; series: Labels" role="graphics-symbol" aria-roledescription="point" transform="translate(126.5,225.28571428571428)" d="M4.61,0A4.61,4.61,0,1,1,-4.61,0A4.61,4.61,0,1,1,4.61,0" fill="#7c3aed" stroke="#faf7f2" stroke-width="2" opacity="1"/><path aria-label="calendar_day: 2026-05-10; Cumulative count: 28; series: Scans" role="graphics-symbol" aria-roledescription="point" transform="translate(126.5,304)" d="M4.61,0A4.61,4.61,0,1,1,-4.61,0A4.61,4.61,0,1,1,4.61,0" fill="#15803d" stroke="#faf7f2" stroke-width="2" opacity="1"/><path aria-label="calendar_day: 2026-05-11; Cumulative count: 57; series: Labels" role="graphics-symbol" aria-roledescription="point" transform="translate(149.5,225.28571428571428)" d="M4.61,0A4.61,4.61,0,1,1,-4.61,0A4.61,4.61,0,1,1,4.61,0" fill="#7c3aed" stroke="#faf7f2" stroke-width="2" opacity="1"/><path aria-label="calendar_day: 2026-05-11; Cumulative count: 40; series: Scans" role="graphics-symbol" aria-roledescription="point" transform="translate(149.5,271.42857142857144)" d="M4.61,0A4.61,4.61,0,1,1,-4.61,0A4.61,4.61,0,1,1,4.61,0" fill="#15803d" stroke="#faf7f2" stroke-width="2" opacity="1"/><path aria-label="calendar_day: 2026-05-12; Cumulative count: 57; series: Labels" role="graphics-symbol" aria-roledescription="point" transform="translate(172.5,225.28571428571428)" d="M4.61,0A4.61,4.61,0,1,1,-4.61,0A4.61,4.61,0,1,1,4.61,0" fill="#7c3aed" stroke="#faf7f2" stroke-width="2" opacity="1"/><path aria-label="calendar_day: 2026-05-12; Cumulative count: 49; series: Scans" role="graphics-symbol" aria-roledescription="point" transform="translate(172.5,247)" d="M4.61,0A4.61,4.61,0,1,1,-4.61,0A4.61,4.61,0,1,1,4.61,0" fill="#15803d" stroke="#faf7f2" stroke-width="2" opacity="1"/><path aria-label="calendar_day: 2026-05-13; Cumulative count: 57; series: Labels" role="graphics-symbol" aria-roledescription="point" transform="translate(195.5,225.28571428571428)" d="M4.61,0A4.61,4.61,0,1,1,-4.61,0A4.61,4.61,0,1,1,4.61,0" fill="#7c3aed" stroke="#faf7f2" stroke-width="2" opacity="1"/><path aria-label="calendar_day: 2026-05-13; Cumulative count: 57; series: Scans" role="graphics-symbol" aria-roledescription="point" transform="translate(195.5,225.28571428571428)" d="M4.61,0A4.61,4.61,0,1,1,-4.61,0A4.61,4.61,0,1,1,4.61,0" fill="#15803d" stroke="#faf7f2" stroke-width="2" opacity="1"/><path aria-label="calendar_day: 2026-05-14; Cumulative count: 77; series: Labels" role="graphics-symbol" aria-roledescription="point" transform="translate(218.5,170.99999999999997)" d="M4.61,0A4.61,4.61,0,1,1,-4.61,0A4.61,4.61,0,1,1,4.61,0" fill="#7c3aed" stroke="#faf7f2" stroke-width="2" opacity="1"/><path aria-label="calendar_day: 2026-05-14; Cumulative count: 68; series: Scans" role="graphics-symbol" aria-roledescription="point" transform="translate(218.5,195.42857142857142)" d="M4.61,0A4.61,4.61,0,1,1,-4.61,0A4.61,4.61,0,1,1,4.61,0" fill="#15803d" stroke="#faf7f2" stroke-width="2" opacity="1"/><path aria-label="calendar_day: 2026-05-15; Cumulative count: 77; series: Labels" role="graphics-symbol" aria-roledescription="point" transform="translate(241.5,170.99999999999997)" d="M4.61,0A4.61,4.61,0,1,1,-4.61,0A4.61,4.61,0,1,1,4.61,0" fill="#7c3aed" stroke="#faf7f2" stroke-width="2" opacity="1"/><path aria-label="calendar_day: 2026-05-15; Cumulative count: 73; series: Scans" role="graphics-symbol" aria-roledescription="point" transform="translate(241.5,181.85714285714283)" d="M4.61,0A4.61,4.61,0,1,1,-4.61,0A4.61,4.61,0,1,1,4.61,0" fill="#15803d" stroke="#faf7f2" stroke-width="2" opacity="1"/><path aria-label="calendar_day: 2026-05-16; Cumulative count: 77; series: Labels" role="graphics-symbol" aria-roledescription="point" transform="translate(264.5,170.99999999999997)" d="M4.61,0A4.61,4.61,0,1,1,-4.61,0A4.61,4.61,0,1,1,4.61,0" fill="#7c3aed" stroke="#faf7f2" stroke-width="2" opacity="1"/><path aria-label="calendar_day: 2026-05-16; Cumulative count: 80; series: Scans" role="graphics-symbol" aria-roledescription="point" transform="translate(264.5,162.85714285714286)" d="M4.61,0A4.61,4.61,0,1,1,-4.61,0A4.61,4.61,0,1,1,4.61,0" fill="#15803d" stroke="#faf7f2" stroke-width="2" opacity="1"/><path aria-label="calendar_day: 2026-05-17; Cumulative count: 77; series: Labels" role="graphics-symbol" aria-roledescription="point" transform="translate(287.5,170.99999999999997)" d="M4.61,0A4.61,4.61,0,1,1,-4.61,0A4.61,4.61,0,1,1,4.61,0" fill="#7c3aed" stroke="#faf7f2" stroke-width="2" opacity="1"/><path aria-label="calendar_day: 2026-05-17; Cumulative count: 83; series: Scans" role="graphics-symbol" aria-roledescription="point" transform="translate(287.5,154.71428571428572)" d="M4.61,0A4.61,4.61,0,1,1,-4.61,0A4.61,4.61,0,1,1,4.61,0" fill="#15803d" stroke="#faf7f2" stroke-width="2" opacity="1"/><path aria-label="calendar_day: 2026-05-18; Cumulative count: 77; series: Labels" role="graphics-symbol" aria-roledescription="point" transform="translate(310.5,170.99999999999997)" d="M4.61,0A4.61,4.61,0,1,1,-4.61,0A4.61,4.61,0,1,1,4.61,0" fill="#7c3aed" stroke="#faf7f2" stroke-width="2" opacity="1"/><path aria-label="calendar_day: 2026-05-18; Cumulative count: 88; series: Scans" role="graphics-symbol" aria-roledescription="point" transform="translate(310.5,141.14285714285714)" d="M4.61,0A4.61,4.61,0,1,1,-4.61,0A4.61,4.61,0,1,1,4.61,0" fill="#15803d" stroke="#faf7f2" stroke-width="2" opacity="1"/><path aria-label="calendar_day: 2026-05-19; Cumulative count: 77; series: Labels" role="graphics-symbol" aria-roledescription="point" transform="translate(333.5,170.99999999999997)" d="M4.61,0A4.61,4.61,0,1,1,-4.61,0A4.61,4.61,0,1,1,4.61,0" fill="#7c3aed" stroke="#faf7f2" stroke-width="2" opacity="1"/><path aria-label="calendar_day: 2026-05-19; Cumulative count: 89; series: Scans" role="graphics-symbol" aria-roledescription="point" transform="translate(333.5,138.42857142857144)" d="M4.61,0A4.61,4.61,0,1,1,-4.61,0A4.61,4.61,0,1,1,4.61,0" fill="#15803d" stroke="#faf7f2" stroke-width="2" opacity="1"/><path aria-label="calendar_day: 2026-05-20; Cumulative count: 77; series: Labels" role="graphics-symbol" aria-roledescription="point" transform="translate(356.5,170.99999999999997)" d="M4.61,0A4.61,4.61,0,1,1,-4.61,0A4.61,4.61,0,1,1,4.61,0" fill="#7c3aed" stroke="#faf7f2" stroke-width="2" opacity="1"/><path aria-label="calendar_day: 2026-05-20; Cumulative count: 97; series: Scans" role="graphics-symbol" aria-roledescription="point" transform="translate(356.5,116.71428571428572)" d="M4.61,0A4.61,4.61,0,1,1,-4.61,0A4.61,4.61,0,1,1,4.61,0" fill="#15803d" stroke="#faf7f2" stroke-width="2" opacity="1"/><path aria-label="calendar_day: 2026-05-21; Cumulative count: 77; series: Labels" role="graphics-symbol" aria-roledescription="point" transform="translate(379.5,170.99999999999997)" d="M4.61,0A4.61,4.61,0,1,1,-4.61,0A4.61,4.61,0,1,1,4.61,0" fill="#7c3aed" stroke="#faf7f2" stroke-width="2" opacity="1"/><path aria-label="calendar_day: 2026-05-21; Cumulative count: 103; series: Scans" role="graphics-symbol" aria-roledescription="point" transform="translate(379.5,100.42857142857142)" d="M4.61,0A4.61,4.61,0,1,1,-4.61,0A4.61,4.61,0,1,1,4.61,0" fill="#15803d" stroke="#faf7f2" stroke-width="2" opacity="1"/><path aria-label="calendar_day: 2026-05-22; Cumulative count: 77; series: Labels" role="graphics-symbol" aria-roledescription="point" transform="translate(402.5,170.99999999999997)" d="M4.61,0A4.61,4.61,0,1,1,-4.61,0A4.61,4.61,0,1,1,4.61,0" fill="#7c3aed" stroke="#faf7f2" stroke-width="2" opacity="1"/><path aria-label="calendar_day: 2026-05-22; Cumulative count: 106; series: Scans" role="graphics-symbol" aria-roledescription="point" transform="translate(402.5,92.28571428571429)" d="M4.61,0A4.61,4.61,0,1,1,-4.61,0A4.61,4.61,0,1,1,4.61,0" fill="#15803d" stroke="#faf7f2" stroke-width="2" opacity="1"/><path aria-label="calendar_day: 2026-05-23; Cumulative count: 77; series: Labels" role="graphics-symbol" aria-roledescription="point" transform="translate(425.5,170.99999999999997)" d="M4.61,0A4.61,4.61,0,1,1,-4.61,0A4.61,4.61,0,1,1,4.61,0" fill="#7c3aed" stroke="#faf7f2" stroke-width="2" opacity="1"/><path aria-label="calendar_day: 2026-05-23; Cumulative count: 110; series: Scans" role="graphics-symbol" aria-roledescription="point" transform="translate(425.5,81.42857142857143)" d="M4.61,0A4.61,4.61,0,1,1,-4.61,0A4.61,4.61,0,1,1,4.61,0" fill="#15803d" stroke="#faf7f2" stroke-width="2" opacity="1"/><path aria-label="calendar_day: 2026-05-24; Cumulative count: 77; series: Labels" role="graphics-symbol" aria-roledescription="point" transform="translate(448.5,170.99999999999997)" d="M4.61,0A4.61,4.61,0,1,1,-4.61,0A4.61,4.61,0,1,1,4.61,0" fill="#7c3aed" stroke="#faf7f2" stroke-width="2" opacity="1"/><path aria-label="calendar_day: 2026-05-24; Cumulative count: 111; series: Scans" role="graphics-symbol" aria-roledescription="point" transform="translate(448.5,78.71428571428574)" d="M4.61,0A4.61,4.61,0,1,1,-4.61,0A4.61,4.61,0,1,1,4.61,0" fill="#15803d" stroke="#faf7f2" stroke-width="2" opacity="1"/><path aria-label="calendar_day: 2026-05-25; Cumulative count: 77; series: Labels" role="graphics-symbol" aria-roledescription="point" transform="translate(471.5,170.99999999999997)" d="M4.61,0A4.61,4.61,0,1,1,-4.61,0A4.61,4.61,0,1,1,4.61,0" fill="#7c3aed" stroke="#faf7f2" stroke-width="2" opacity="1"/><path aria-label="calendar_day: 2026-05-25; Cumulative count: 112; series: Scans" role="graphics-symbol" aria-roledescription="point" transform="translate(471.5,75.99999999999999)" d="M4.61,0A4.61,4.61,0,1,1,-4.61,0A4.61,4.61,0,1,1,4.61,0" fill="#15803d" stroke="#faf7f2" stroke-width="2" opacity="1"/><path aria-label="calendar_day: 2026-05-26; Cumulative count: 77; series: Labels" role="graphics-symbol" aria-roledescription="point" transform="translate(494.5,170.99999999999997)" d="M4.61,0A4.61,4.61,0,1,1,-4.61,0A4.61,4.61,0,1,1,4.61,0" fill="#7c3aed" stroke="#faf7f2" stroke-width="2" opacity="1"/><path aria-label="calendar_day: 2026-05-26; Cumulative count: 114; series: Scans" role="graphics-symbol" aria-roledescription="point" transform="translate(494.5,70.57142857142857)" d="M4.61,0A4.61,4.61,0,1,1,-4.61,0A4.61,4.61,0,1,1,4.61,0" fill="#15803d" stroke="#faf7f2" stroke-width="2" opacity="1"/><path aria-label="calendar_day: 2026-05-27; Cumulative count: 77; series: Labels" role="graphics-symbol" aria-roledescription="point" transform="translate(517.5,170.99999999999997)" d="M4.61,0A4.61,4.61,0,1,1,-4.61,0A4.61,4.61,0,1,1,4.61,0" fill="#7c3aed" stroke="#faf7f2" stroke-width="2" opacity="1"/><path aria-label="calendar_day: 2026-05-27; Cumulative count: 114; series: Scans" role="graphics-symbol" aria-roledescription="point" transform="translate(517.5,70.57142857142857)" d="M4.61,0A4.61,4.61,0,1,1,-4.61,0A4.61,4.61,0,1,1,4.61,0" fill="#15803d" stroke="#faf7f2" stroke-width="2" opacity="1"/><path aria-label="calendar_day: 2026-05-28; Cumulative count: 77; series: Labels" role="graphics-symbol" aria-roledescription="point" transform="translate(540.5,170.99999999999997)" d="M4.61,0A4.61,4.61,0,1,1,-4.61,0A4.61,4.61,0,1,1,4.61,0" fill="#7c3aed" stroke="#faf7f2" stroke-width="2" opacity="1"/><path aria-label="calendar_day: 2026-05-28; Cumulative count: 114; series: Scans" role="graphics-symbol" aria-roledescription="point" transform="translate(540.5,70.57142857142857)" d="M4.61,0A4.61,4.61,0,1,1,-4.61,0A4.61,4.61,0,1,1,4.61,0" fill="#15803d" stroke="#faf7f2" stroke-width="2" opacity="1"/><path aria-label="calendar_day: 2026-05-29; Cumulative count: 77; series: Labels" role="graphics-symbol" aria-roledescription="point" transform="translate(563.5,170.99999999999997)" d="M4.61,0A4.61,4.61,0,1,1,-4.61,0A4.61,4.61,0,1,1,4.61,0" fill="#7c3aed" stroke="#faf7f2" stroke-width="2" opacity="1"/><path aria-label="calendar_day: 2026-05-29; Cumulative count: 115; series: Scans" role="graphics-symbol" aria-roledescription="point" transform="translate(563.5,67.85714285714288)" d="M4.61,0A4.61,4.61,0,1,1,-4.61,0A4.61,4.61,0,1,1,4.61,0" fill="#15803d" stroke="#faf7f2" stroke-width="2" opacity="1"/><path aria-label="calendar_day: 2026-05-30; Cumulative count: 77; series: Labels" role="graphics-symbol" aria-roledescription="point" transform="translate(586.5,170.99999999999997)" d="M4.61,0A4.61,4.61,0,1,1,-4.61,0A4.61,4.61,0,1,1,4.61,0" fill="#7c3aed" stroke="#faf7f2" stroke-width="2" opacity="1"/><path aria-label="calendar_day: 2026-05-30; Cumulative count: 118; series: Scans" role="graphics-symbol" aria-roledescription="point" transform="translate(586.5,59.714285714285715)" d="M4.61,0A4.61,4.61,0,1,1,-4.61,0A4.61,4.61,0,1,1,4.61,0" fill="#15803d" stroke="#faf7f2" stroke-width="2" opacity="1"/><path aria-label="calendar_day: 2026-05-31; Cumulative count: 77; series: Labels" role="graphics-symbol" aria-roledescription="point" transform="translate(609.5,170.99999999999997)" d="M4.61,0A4.61,4.61,0,1,1,-4.61,0A4.61,4.61,0,1,1,4.61,0" fill="#7c3aed" stroke="#faf7f2" stroke-width="2" opacity="1"/><path aria-label="calendar_day: 2026-05-31; Cumulative count: 118; series: Scans" role="graphics-symbol" aria-roledescription="point" transform="translate(609.5,59.714285714285715)" d="M4.61,0A4.61,4.61,0,1,1,-4.61,0A4.61,4.61,0,1,1,4.61,0" fill="#15803d" stroke="#faf7f2" stroke-width="2" opacity="1"/><path aria-label="calendar_day: 2026-06-01; Cumulative count: 77; series: Labels" role="graphics-symbol" aria-roledescription="point" transform="translate(632.5,170.99999999999997)" d="M4.61,0A4.61,4.61,0,1,1,-4.61,0A4.61,4.61,0,1,1,4.61,0" fill="#7c3aed" stroke="#faf7f2" stroke-width="2" opacity="1"/><path aria-label="calendar_day: 2026-06-01; Cumulative count: 118; series: Scans" role="graphics-symbol" aria-roledescription="point" transform="translate(632.5,59.714285714285715)" d="M4.61,0A4.61,4.61,0,1,1,-4.61,0A4.61,4.61,0,1,1,4.61,0" fill="#15803d" stroke="#faf7f2" stroke-width="2" opacity="1"/><path aria-label="calendar_day: 2026-06-02; Cumulative count: 77; series: Labels" role="graphics-symbol" aria-roledescription="point" transform="translate(655.5,170.99999999999997)" d="M4.61,0A4.61,4.61,0,1,1,-4.61,0A4.61,4.61,0,1,1,4.61,0" fill="#7c3aed" stroke="#faf7f2" stroke-width="2" opacity="1"/><path aria-label="calendar_day: 2026-06-02; Cumulative count: 120; series: Scans" role="graphics-symbol" aria-roledescription="point" transform="translate(655.5,54.285714285714306)" d="M4.61,0A4.61,4.61,0,1,1,-4.61,0A4.61,4.61,0,1,1,4.61,0" fill="#15803d" stroke="#faf7f2" stroke-width="2" opacity="1"/><path aria-label="calendar_day: 2026-06-03; Cumulative count: 77; series: Labels" role="graphics-symbol" aria-roledescription="point" transform="translate(678.5,170.99999999999997)" d="M4.61,0A4.61,4.61,0,1,1,-4.61,0A4.61,4.61,0,1,1,4.61,0" fill="#7c3aed" stroke="#faf7f2" stroke-width="2" opacity="1"/><path aria-label="calendar_day: 2026-06-03; Cumulative count: 121; series: Scans" role="graphics-symbol" aria-roledescription="point" transform="translate(678.5,51.571428571428555)" d="M4.61,0A4.61,4.61,0,1,1,-4.61,0A4.61,4.61,0,1,1,4.61,0" fill="#15803d" stroke="#faf7f2" stroke-width="2" opacity="1"/><path aria-label="calendar_day: 2026-06-04; Cumulative count: 77; series: Labels" role="graphics-symbol" aria-roledescription="point" transform="translate(701.5,170.99999999999997)" d="M4.61,0A4.61,4.61,0,1,1,-4.61,0A4.61,4.61,0,1,1,4.61,0" fill="#7c3aed" stroke="#faf7f2" stroke-width="2" opacity="1"/><path aria-label="calendar_day: 2026-06-04; Cumulative count: 121; series: Scans" role="graphics-symbol" aria-roledescription="point" transform="translate(701.5,51.571428571428555)" d="M4.61,0A4.61,4.61,0,1,1,-4.61,0A4.61,4.61,0,1,1,4.61,0" fill="#15803d" stroke="#faf7f2" stroke-width="2" opacity="1"/><path aria-label="calendar_day: 2026-06-05; Cumulative count: 77; series: Labels" role="graphics-symbol" aria-roledescription="point" transform="translate(724.5,170.99999999999997)" d="M4.61,0A4.61,4.61,0,1,1,-4.61,0A4.61,4.61,0,1,1,4.61,0" fill="#7c3aed" stroke="#faf7f2" stroke-width="2" opacity="1"/><path aria-label="calendar_day: 2026-06-05; Cumulative count: 124; series: Scans" role="graphics-symbol" aria-roledescription="point" transform="translate(724.5,43.428571428571445)" d="M4.61,0A4.61,4.61,0,1,1,-4.61,0A4.61,4.61,0,1,1,4.61,0" fill="#15803d" stroke="#faf7f2" stroke-width="2" opacity="1"/><path aria-label="calendar_day: 2026-06-06; Cumulative count: 80; series: Labels" role="graphics-symbol" aria-roledescription="point" transform="translate(747.5,162.85714285714286)" d="M4.61,0A4.61,4.61,0,1,1,-4.61,0A4.61,4.61,0,1,1,4.61,0" fill="#7c3aed" stroke="#faf7f2" stroke-width="2" opacity="1"/><path aria-label="calendar_day: 2026-06-06; Cumulative count: 124; series: Scans" role="graphics-symbol" aria-roledescription="point" transform="translate(747.5,43.428571428571445)" d="M4.61,0A4.61,4.61,0,1,1,-4.61,0A4.61,4.61,0,1,1,4.61,0" fill="#15803d" stroke="#faf7f2" stroke-width="2" opacity="1"/><path aria-label="calendar_day: 2026-06-07; Cumulative count: 80; series: Labels" role="graphics-symbol" aria-roledescription="point" transform="translate(770.5,162.85714285714286)" d="M4.61,0A4.61,4.61,0,1,1,-4.61,0A4.61,4.61,0,1,1,4.61,0" fill="#7c3aed" stroke="#faf7f2" stroke-width="2" opacity="1"/><path aria-label="calendar_day: 2026-06-07; Cumulative count: 125; series: Scans" role="graphics-symbol" aria-roledescription="point" transform="translate(770.5,40.714285714285694)" d="M4.61,0A4.61,4.61,0,1,1,-4.61,0A4.61,4.61,0,1,1,4.61,0" fill="#15803d" stroke="#faf7f2" stroke-width="2" opacity="1"/><path aria-label="calendar_day: 2026-06-08; Cumulative count: 80; series: Labels" role="graphics-symbol" aria-roledescription="point" transform="translate(793.5,162.85714285714286)" d="M4.61,0A4.61,4.61,0,1,1,-4.61,0A4.61,4.61,0,1,1,4.61,0" fill="#7c3aed" stroke="#faf7f2" stroke-width="2" opacity="1"/><path aria-label="calendar_day: 2026-06-08; Cumulative count: 127; series: Scans" role="graphics-symbol" aria-roledescription="point" transform="translate(793.5,35.285714285714285)" d="M4.61,0A4.61,4.61,0,1,1,-4.61,0A4.61,4.61,0,1,1,4.61,0" fill="#15803d" stroke="#faf7f2" stroke-width="2" opacity="1"/><path aria-label="calendar_day: 2026-06-09; Cumulative count: 80; series: Labels" role="graphics-symbol" aria-roledescription="point" transform="translate(816.5,162.85714285714286)" d="M4.61,0A4.61,4.61,0,1,1,-4.61,0A4.61,4.61,0,1,1,4.61,0" fill="#7c3aed" stroke="#faf7f2" stroke-width="2" opacity="1"/><path aria-label="calendar_day: 2026-06-09; Cumulative count: 130; series: Scans" role="graphics-symbol" aria-roledescription="point" transform="translate(816.5,27.14285714285713)" d="M4.61,0A4.61,4.61,0,1,1,-4.61,0A4.61,4.61,0,1,1,4.61,0" fill="#15803d" stroke="#faf7f2" stroke-width="2" opacity="1"/><path aria-label="calendar_day: 2026-06-10; Cumulative count: 89; series: Labels" role="graphics-symbol" aria-roledescription="point" transform="translate(839.5,138.42857142857144)" d="M4.61,0A4.61,4.61,0,1,1,-4.61,0A4.61,4.61,0,1,1,4.61,0" fill="#7c3aed" stroke="#faf7f2" stroke-width="2" opacity="1"/><path aria-label="calendar_day: 2026-06-10; Cumulative count: 130; series: Scans" role="graphics-symbol" aria-roledescription="point" transform="translate(839.5,27.14285714285713)" d="M4.61,0A4.61,4.61,0,1,1,-4.61,0A4.61,4.61,0,1,1,4.61,0" fill="#15803d" stroke="#faf7f2" stroke-width="2" opacity="1"/><path aria-label="calendar_day: 2026-06-11; Cumulative count: 89; series: Labels" role="graphics-symbol" aria-roledescription="point" transform="translate(862.5,138.42857142857144)" d="M4.61,0A4.61,4.61,0,1,1,-4.61,0A4.61,4.61,0,1,1,4.61,0" fill="#7c3aed" stroke="#faf7f2" stroke-width="2" opacity="1"/><path aria-label="calendar_day: 2026-06-11; Cumulative count: 133; series: Scans" role="graphics-symbol" aria-roledescription="point" transform="translate(862.5,19.000000000000018)" d="M4.61,0A4.61,4.61,0,1,1,-4.61,0A4.61,4.61,0,1,1,4.61,0" fill="#15803d" stroke="#faf7f2" stroke-width="2" opacity="1"/><path aria-label="calendar_day: 2026-06-12; Cumulative count: 89; series: Labels" role="graphics-symbol" aria-roledescription="point" transform="translate(885.5,138.42857142857144)" d="M4.61,0A4.61,4.61,0,1,1,-4.61,0A4.61,4.61,0,1,1,4.61,0" fill="#7c3aed" stroke="#faf7f2" stroke-width="2" opacity="1"/><path aria-label="calendar_day: 2026-06-12; Cumulative count: 136; series: Scans" role="graphics-symbol" aria-roledescription="point" transform="translate(885.5,10.857142857142861)" d="M4.61,0A4.61,4.61,0,1,1,-4.61,0A4.61,4.61,0,1,1,4.61,0" fill="#15803d" stroke="#faf7f2" stroke-width="2" opacity="1"/><path aria-label="calendar_day: 2026-06-13; Cumulative count: 89; series: Labels" role="graphics-symbol" aria-roledescription="point" transform="translate(908.5,138.42857142857144)" d="M4.61,0A4.61,4.61,0,1,1,-4.61,0A4.61,4.61,0,1,1,4.61,0" fill="#7c3aed" stroke="#faf7f2" stroke-width="2" opacity="1"/><path aria-label="calendar_day: 2026-06-13; Cumulative count: 136; series: Scans" role="graphics-symbol" aria-roledescription="point" transform="translate(908.5,10.857142857142861)" d="M4.61,0A4.61,4.61,0,1,1,-4.61,0A4.61,4.61,0,1,1,4.61,0" fill="#15803d" stroke="#faf7f2" stroke-width="2" opacity="1"/></g><g class="mark-group role-legend" role="graphics-symbol" aria-roledescription="legend" aria-label="Symbol legend for fill color and stroke color with 2 values: Labels, Scans"><g transform="translate(0,-15)"><path class="background" aria-hidden="true" d="M0,0h151v13h-151Z" pointer-events="none"/><g><g class="mark-group role-legend-entry"><g transform="translate(0,0)"><path class="background" aria-hidden="true" d="M0,0h0v0h0Z" pointer-events="none"/><g><g class="mark-group role-scope" role="graphics-object" aria-roledescription="group mark container"><g transform="translate(0,0.25)"><path class="background" aria-hidden="true" d="M0,0h74v12.5h-74Z" pointer-events="none" opacity="1"/><g><g class="mark-symbol role-legend-symbol" pointer-events="none"><path transform="translate(6.5,6.5)" d="M-5,0L5,0" fill="#7c3aed" stroke="#7c3aed" stroke-width="3" stroke-linejoin="round" opacity="1"/></g><g class="mark-text role-legend-label" pointer-events="none"><text text-anchor="start" transform="translate(17,10.5)" font-family="ui-sans-serif, system-ui, &quot;Segoe UI&quot;, Roboto, Helvetica, Arial, sans-serif" font-size="12px" fill="#000" opacity="1">Labels</text></g></g><path class="foreground" aria-hidden="true" d="" pointer-events="none" display="none"/></g><g transform="translate(86,0.25)"><path class="background" aria-hidden="true" d="M0,0h65v12.5h-65Z" pointer-events="none" opacity="1"/><g><g class="mark-symbol role-legend-symbol" pointer-events="none"><path transform="translate(6.5,6.5)" d="M-5,0L5,0" fill="#15803d" stroke="#15803d" stroke-width="3" stroke-linejoin="round" opacity="1"/></g><g class="mark-text role-legend-label" pointer-events="none"><text text-anchor="start" transform="translate(17,10.5)" font-family="ui-sans-serif, system-ui, &quot;Segoe UI&quot;, Roboto, Helvetica, Arial, sans-serif" font-size="12px" fill="#000" opacity="1">Scans</text></g></g><path class="foreground" aria-hidden="true" d="" pointer-events="none" display="none"/></g></g></g><path class="foreground" aria-hidden="true" d="" pointer-events="none" display="none"/></g></g></g><path class="foreground" aria-hidden="true" d="" pointer-events="none" display="none"/></g></g><g class="mark-group role-title"><g transform="translate(0,-41)"><path class="background" aria-hidden="true" d="M0,0h0v0h0Z" pointer-events="none"/><g><g class="mark-text role-title-text" role="graphics-symbol" aria-roledescription="title" aria-label="Title text 'QR Code Tracking in Berwyn, IL'" pointer-events="none"><text text-anchor="start" transform="translate(0,16)" font-family="ui-sans-serif, system-ui, &quot;Segoe UI&quot;, Roboto, Helvetica, Arial, sans-serif" font-size="20px" font-weight="650" fill="#292524" opacity="1">QR Code Tracking in Berwyn, IL</text></g></g><path class="foreground" aria-hidden="true" d="" pointer-events="none" display="none"/></g></g></g><path class="foreground" aria-hidden="true" d="" display="none"/></g></g></g></svg>