<svg xmlns="http://www.w3.org/2000/svg" xmlns:xlink="http://www.w3.org/1999/xlink" version="1.1" class="marks" width="998" height="481" viewBox="0 0 998 481"><rect width="998" height="481" fill="#faf7f2"/><g fill="none" stroke-miterlimit="10" transform="translate(54,49)"><g class="mark-group role-frame root" role="graphics-object" aria-roledescription="group mark container"><g transform="translate(0,0)"><path class="background" aria-hidden="true" d="M0,0h920v380h-920Z"/><g><g class="mark-group role-axis" aria-hidden="true"><g transform="translate(0.5,0.5)"><path class="background" aria-hidden="true" d="M0,0h0v0h0Z" pointer-events="none"/><g><g class="mark-rule role-axis-grid" pointer-events="none"><line transform="translate(0,380)" x2="920" y2="0" stroke="#e7e5e4" stroke-width="1" opacity="1"/><line transform="translate(0,333)" x2="920" y2="0" stroke="#e7e5e4" stroke-width="1" opacity="1"/><line transform="translate(0,285)" x2="920" y2="0" stroke="#e7e5e4" stroke-width="1" opacity="1"/><line transform="translate(0,238)" x2="920" y2="0" stroke="#e7e5e4" stroke-width="1" opacity="1"/><line transform="translate(0,190)" x2="920" y2="0" stroke="#e7e5e4" stroke-width="1" opacity="1"/><line transform="translate(0,143)" x2="920" y2="0" stroke="#e7e5e4" stroke-width="1" opacity="1"/><line transform="translate(0,95)" x2="920" y2="0" stroke="#e7e5e4" stroke-width="1" opacity="1"/><line transform="translate(0,48)" x2="920" y2="0" stroke="#e7e5e4" stroke-width="1" opacity="1"/><line transform="translate(0,0)" x2="920" y2="0" stroke="#e7e5e4" stroke-width="1" opacity="1"/></g></g><path class="foreground" aria-hidden="true" d="" pointer-events="none" display="none"/></g></g><g class="mark-group role-axis" role="graphics-symbol" aria-roledescription="axis" aria-label="X-axis for a discrete scale with 42 values: 2026-05-05, 2026-05-06, 2026-05-07, 2026-05-08, 2026-05-09, ending with 2026-06-15"><g transform="translate(0.5,380.5)"><path class="background" aria-hidden="true" d="M0,0h0v0h0Z" pointer-events="none"/><g><g class="mark-text role-axis-label" pointer-events="none"><text text-anchor="end" transform="translate(10.952380952380963,6) rotate(322) translate(0,8)" font-family="ui-sans-serif, system-ui, &quot;Segoe UI&quot;, Roboto, Helvetica, Arial, sans-serif" font-size="10px" fill="#57534e" opacity="1">May  5</text><text text-anchor="end" transform="translate(32.85714285714287,6) rotate(322) translate(0,8)" font-family="ui-sans-serif, system-ui, &quot;Segoe UI&quot;, Roboto, Helvetica, Arial, sans-serif" font-size="10px" fill="#57534e" opacity="0">May  6</text><text text-anchor="end" transform="translate(54.76190476190477,6) rotate(322) translate(0,8)" font-family="ui-sans-serif, system-ui, &quot;Segoe UI&quot;, Roboto, Helvetica, Arial, sans-serif" font-size="10px" fill="#57534e" opacity="0">May  7</text><text text-anchor="end" transform="translate(76.66666666666669,6) rotate(322) translate(0,8)" font-family="ui-sans-serif, system-ui, &quot;Segoe UI&quot;, Roboto, Helvetica, Arial, sans-serif" font-size="10px" fill="#57534e" opacity="1">May  8</text><text text-anchor="end" transform="translate(98.57142857142858,6) rotate(322) translate(0,8)" font-family="ui-sans-serif, system-ui, &quot;Segoe UI&quot;, Roboto, Helvetica, Arial, sans-serif" font-size="10px" fill="#57534e" opacity="0">May  9</text><text text-anchor="end" transform="translate(120.47619047619048,6) rotate(322) translate(0,8)" font-family="ui-sans-serif, system-ui, &quot;Segoe UI&quot;, Roboto, Helvetica, Arial, sans-serif" font-size="10px" fill="#57534e" opacity="0">May 10</text><text text-anchor="end" transform="translate(142.3809523809524,6) rotate(322) translate(0,8)" font-family="ui-sans-serif, system-ui, &quot;Segoe UI&quot;, Roboto, Helvetica, Arial, sans-serif" font-size="10px" fill="#57534e" opacity="1">May 11</text><text text-anchor="end" transform="translate(164.2857142857143,6) rotate(322) translate(0,8)" font-family="ui-sans-serif, system-ui, &quot;Segoe UI&quot;, Roboto, Helvetica, Arial, sans-serif" font-size="10px" fill="#57534e" opacity="0">May 12</text><text text-anchor="end" transform="translate(186.1904761904762,6) rotate(322) translate(0,8)" font-family="ui-sans-serif, system-ui, &quot;Segoe UI&quot;, Roboto, Helvetica, Arial, sans-serif" font-size="10px" fill="#57534e" opacity="0">May 13</text><text text-anchor="end" transform="translate(208.0952380952381,6) rotate(322) translate(0,8)" font-family="ui-sans-serif, system-ui, &quot;Segoe UI&quot;, Roboto, Helvetica, Arial, sans-serif" font-size="10px" fill="#57534e" opacity="1">May 14</text><text text-anchor="end" transform="translate(230,6) rotate(322) translate(0,8)" font-family="ui-sans-serif, system-ui, &quot;Segoe UI&quot;, Roboto, Helvetica, Arial, sans-serif" font-size="10px" fill="#57534e" opacity="0">May 15</text><text text-anchor="end" transform="translate(251.90476190476193,6) rotate(322) translate(0,8)" font-family="ui-sans-serif, system-ui, &quot;Segoe UI&quot;, Roboto, Helvetica, Arial, sans-serif" font-size="10px" fill="#57534e" opacity="0">May 16</text><text text-anchor="end" transform="translate(273.80952380952385,6) rotate(322) translate(0,8)" font-family="ui-sans-serif, system-ui, &quot;Segoe UI&quot;, Roboto, Helvetica, Arial, sans-serif" font-size="10px" fill="#57534e" opacity="1">May 17</text><text text-anchor="end" transform="translate(295.7142857142857,6) rotate(322) translate(0,8)" font-family="ui-sans-serif, system-ui, &quot;Segoe UI&quot;, Roboto, Helvetica, Arial, sans-serif" font-size="10px" fill="#57534e" opacity="0">May 18</text><text text-anchor="end" transform="translate(317.61904761904765,6) rotate(322) translate(0,8)" font-family="ui-sans-serif, system-ui, &quot;Segoe UI&quot;, Roboto, Helvetica, Arial, sans-serif" font-size="10px" fill="#57534e" opacity="0">May 19</text><text text-anchor="end" transform="translate(339.5238095238095,6) rotate(322) translate(0,8)" font-family="ui-sans-serif, system-ui, &quot;Segoe UI&quot;, Roboto, Helvetica, Arial, sans-serif" font-size="10px" fill="#57534e" opacity="1">May 20</text><text text-anchor="end" transform="translate(361.42857142857144,6) rotate(322) translate(0,8)" font-family="ui-sans-serif, system-ui, &quot;Segoe UI&quot;, Roboto, Helvetica, Arial, sans-serif" font-size="10px" fill="#57534e" opacity="0">May 21</text><text text-anchor="end" transform="translate(383.33333333333337,6) rotate(322) translate(0,8)" font-family="ui-sans-serif, system-ui, &quot;Segoe UI&quot;, Roboto, Helvetica, Arial, sans-serif" font-size="10px" fill="#57534e" opacity="0">May 22</text><text text-anchor="end" transform="translate(405.23809523809524,6) rotate(322) translate(0,8)" font-family="ui-sans-serif, system-ui, &quot;Segoe UI&quot;, Roboto, Helvetica, Arial, sans-serif" font-size="10px" fill="#57534e" opacity="1">May 23</text><text text-anchor="end" transform="translate(427.14285714285717,6) rotate(322) translate(0,8)" font-family="ui-sans-serif, system-ui, &quot;Segoe UI&quot;, Roboto, Helvetica, Arial, sans-serif" font-size="10px" fill="#57534e" opacity="0">May 24</text><text text-anchor="end" transform="translate(449.04761904761904,6) rotate(322) translate(0,8)" font-family="ui-sans-serif, system-ui, &quot;Segoe UI&quot;, Roboto, Helvetica, Arial, sans-serif" font-size="10px" fill="#57534e" opacity="0">May 25</text><text text-anchor="end" transform="translate(470.95238095238096,6) rotate(322) translate(0,8)" font-family="ui-sans-serif, system-ui, &quot;Segoe UI&quot;, Roboto, Helvetica, Arial, sans-serif" font-size="10px" fill="#57534e" opacity="1">May 26</text><text text-anchor="end" transform="translate(492.8571428571429,6) rotate(322) translate(0,8)" font-family="ui-sans-serif, system-ui, &quot;Segoe UI&quot;, Roboto, Helvetica, Arial, sans-serif" font-size="10px" fill="#57534e" opacity="0">May 27</text><text text-anchor="end" transform="translate(514.7619047619048,6) rotate(322) translate(0,8)" font-family="ui-sans-serif, system-ui, &quot;Segoe UI&quot;, Roboto, Helvetica, Arial, sans-serif" font-size="10px" fill="#57534e" opacity="0">May 28</text><text text-anchor="end" transform="translate(536.6666666666667,6) rotate(322) translate(0,8)" font-family="ui-sans-serif, system-ui, &quot;Segoe UI&quot;, Roboto, Helvetica, Arial, sans-serif" font-size="10px" fill="#57534e" opacity="1">May 29</text><text text-anchor="end" transform="translate(558.5714285714286,6) rotate(322) translate(0,8)" font-family="ui-sans-serif, system-ui, &quot;Segoe UI&quot;, Roboto, Helvetica, Arial, sans-serif" font-size="10px" fill="#57534e" opacity="0">May 30</text><text text-anchor="end" transform="translate(580.4761904761905,6) rotate(322) translate(0,8)" font-family="ui-sans-serif, system-ui, &quot;Segoe UI&quot;, Roboto, Helvetica, Arial, sans-serif" font-size="10px" fill="#57534e" opacity="0">May 31</text><text text-anchor="end" transform="translate(602.3809523809524,6) rotate(322) translate(0,8)" font-family="ui-sans-serif, system-ui, &quot;Segoe UI&quot;, Roboto, Helvetica, Arial, sans-serif" font-size="10px" fill="#57534e" opacity="1">Jun  1</text><text text-anchor="end" transform="translate(624.2857142857143,6) rotate(322) translate(0,8)" font-family="ui-sans-serif, system-ui, &quot;Segoe UI&quot;, Roboto, Helvetica, Arial, sans-serif" font-size="10px" fill="#57534e" opacity="0">Jun  2</text><text text-anchor="end" transform="translate(646.1904761904763,6) rotate(322) translate(0,8)" font-family="ui-sans-serif, system-ui, &quot;Segoe UI&quot;, Roboto, Helvetica, Arial, sans-serif" font-size="10px" fill="#57534e" opacity="0">Jun  3</text><text text-anchor="end" transform="translate(668.0952380952381,6) rotate(322) translate(0,8)" font-family="ui-sans-serif, system-ui, &quot;Segoe UI&quot;, Roboto, Helvetica, Arial, sans-serif" font-size="10px" fill="#57534e" opacity="1">Jun  4</text><text text-anchor="end" transform="translate(690,6) rotate(322) translate(0,8)" font-family="ui-sans-serif, system-ui, &quot;Segoe UI&quot;, Roboto, Helvetica, Arial, sans-serif" font-size="10px" fill="#57534e" opacity="0">Jun  5</text><text text-anchor="end" transform="translate(711.9047619047619,6) rotate(322) translate(0,8)" font-family="ui-sans-serif, system-ui, &quot;Segoe UI&quot;, Roboto, Helvetica, Arial, sans-serif" font-size="10px" fill="#57534e" opacity="0">Jun  6</text><text text-anchor="end" transform="translate(733.8095238095239,6) rotate(322) translate(0,8)" font-family="ui-sans-serif, system-ui, &quot;Segoe UI&quot;, Roboto, Helvetica, Arial, sans-serif" font-size="10px" fill="#57534e" opacity="1">Jun  7</text><text text-anchor="end" transform="translate(755.7142857142858,6) rotate(322) translate(0,8)" font-family="ui-sans-serif, system-ui, &quot;Segoe UI&quot;, Roboto, Helvetica, Arial, sans-serif" font-size="10px" fill="#57534e" opacity="0">Jun  8</text><text text-anchor="end" transform="translate(777.6190476190476,6) rotate(322) translate(0,8)" font-family="ui-sans-serif, system-ui, &quot;Segoe UI&quot;, Roboto, Helvetica, Arial, sans-serif" font-size="10px" fill="#57534e" opacity="0">Jun  9</text><text text-anchor="end" transform="translate(799.5238095238095,6) rotate(322) translate(0,8)" font-family="ui-sans-serif, system-ui, &quot;Segoe UI&quot;, Roboto, Helvetica, Arial, sans-serif" font-size="10px" fill="#57534e" opacity="1">Jun 10</text><text text-anchor="end" transform="translate(821.4285714285714,6) rotate(322) translate(0,8)" font-family="ui-sans-serif, system-ui, &quot;Segoe UI&quot;, Roboto, Helvetica, Arial, sans-serif" font-size="10px" fill="#57534e" opacity="0">Jun 11</text><text text-anchor="end" transform="translate(843.3333333333334,6) rotate(322) translate(0,8)" font-family="ui-sans-serif, system-ui, &quot;Segoe UI&quot;, Roboto, Helvetica, Arial, sans-serif" font-size="10px" fill="#57534e" opacity="0">Jun 12</text><text text-anchor="end" transform="translate(865.2380952380953,6) rotate(322) translate(0,8)" font-family="ui-sans-serif, system-ui, &quot;Segoe UI&quot;, Roboto, Helvetica, Arial, sans-serif" font-size="10px" fill="#57534e" opacity="1">Jun 13</text><text text-anchor="end" transform="translate(887.1428571428571,6) rotate(322) translate(0,8)" font-family="ui-sans-serif, system-ui, &quot;Segoe UI&quot;, Roboto, Helvetica, Arial, sans-serif" font-size="10px" fill="#57534e" opacity="0">Jun 14</text><text text-anchor="end" transform="translate(909.047619047619,6) rotate(322) translate(0,8)" font-family="ui-sans-serif, system-ui, &quot;Segoe UI&quot;, Roboto, Helvetica, Arial, sans-serif" font-size="10px" fill="#57534e" opacity="0">Jun 15</text></g></g><path class="foreground" aria-hidden="true" d="" pointer-events="none" display="none"/></g></g><g class="mark-group role-axis" role="graphics-symbol" aria-roledescription="axis" aria-label="Y-axis titled 'Cumulative count' for a linear scale with values from 0 to 160"><g transform="translate(0.5,0.5)"><path class="background" aria-hidden="true" d="M0,0h0v0h0Z" pointer-events="none"/><g><g class="mark-rule role-axis-tick" pointer-events="none"><line transform="translate(0,380)" x2="-5" y2="0" stroke="#d6d3d1" stroke-width="1" opacity="1"/><line transform="translate(0,333)" x2="-5" y2="0" stroke="#d6d3d1" stroke-width="1" opacity="1"/><line transform="translate(0,285)" x2="-5" y2="0" stroke="#d6d3d1" stroke-width="1" opacity="1"/><line transform="translate(0,238)" x2="-5" y2="0" stroke="#d6d3d1" stroke-width="1" opacity="1"/><line transform="translate(0,190)" x2="-5" y2="0" stroke="#d6d3d1" stroke-width="1" opacity="1"/><line transform="translate(0,143)" x2="-5" y2="0" stroke="#d6d3d1" stroke-width="1" opacity="1"/><line transform="translate(0,95)" x2="-5" y2="0" stroke="#d6d3d1" stroke-width="1" opacity="1"/><line transform="translate(0,48)" x2="-5" y2="0" stroke="#d6d3d1" stroke-width="1" opacity="1"/><line transform="translate(0,0)" x2="-5" y2="0" stroke="#d6d3d1" stroke-width="1" opacity="1"/></g><g class="mark-text role-axis-label" pointer-events="none"><text text-anchor="end" transform="translate(-7,383)" font-family="ui-sans-serif, system-ui, &quot;Segoe UI&quot;, Roboto, Helvetica, Arial, sans-serif" font-size="10px" fill="#57534e" opacity="1">0</text><text text-anchor="end" transform="translate(-7,335.5)" font-family="ui-sans-serif, system-ui, &quot;Segoe UI&quot;, Roboto, Helvetica, Arial, sans-serif" font-size="10px" fill="#57534e" opacity="1">20</text><text text-anchor="end" transform="translate(-7,288)" font-family="ui-sans-serif, system-ui, &quot;Segoe UI&quot;, Roboto, Helvetica, Arial, sans-serif" font-size="10px" fill="#57534e" opacity="1">40</text><text text-anchor="end" transform="translate(-7,240.5)" font-family="ui-sans-serif, system-ui, &quot;Segoe UI&quot;, Roboto, Helvetica, Arial, sans-serif" font-size="10px" fill="#57534e" opacity="1">60</text><text text-anchor="end" transform="translate(-7,193)" font-family="ui-sans-serif, system-ui, &quot;Segoe UI&quot;, Roboto, Helvetica, Arial, sans-serif" font-size="10px" fill="#57534e" opacity="1">80</text><text text-anchor="end" transform="translate(-7,145.5)" font-family="ui-sans-serif, system-ui, &quot;Segoe UI&quot;, Roboto, Helvetica, Arial, sans-serif" font-size="10px" fill="#57534e" opacity="1">100</text><text text-anchor="end" transform="translate(-7,98)" font-family="ui-sans-serif, system-ui, &quot;Segoe UI&quot;, Roboto, Helvetica, Arial, sans-serif" font-size="10px" fill="#57534e" opacity="1">120</text><text text-anchor="end" transform="translate(-7,50.5)" font-family="ui-sans-serif, system-ui, &quot;Segoe UI&quot;, Roboto, Helvetica, Arial, sans-serif" font-size="10px" fill="#57534e" opacity="1">140</text><text text-anchor="end" transform="translate(-7,3)" font-family="ui-sans-serif, system-ui, &quot;Segoe UI&quot;, Roboto, Helvetica, Arial, sans-serif" font-size="10px" fill="#57534e" opacity="1">160</text></g><g class="mark-rule role-axis-domain" pointer-events="none"><line transform="translate(0,380)" x2="0" y2="-380" stroke="#d6d3d1" stroke-width="1" opacity="1"/></g><g class="mark-text role-axis-title" pointer-events="none"><text text-anchor="middle" transform="translate(-35,190) rotate(-90) translate(0,-2)" font-family="ui-sans-serif, system-ui, &quot;Segoe UI&quot;, Roboto, Helvetica, Arial, sans-serif" font-size="11px" font-weight="bold" fill="#44403c" opacity="1">Cumulative count</text></g></g><path class="foreground" aria-hidden="true" d="" pointer-events="none" display="none"/></g></g><g class="mark-group role-scope layer_0_pathgroup" role="graphics-object" aria-roledescription="group mark container"><g transform="translate(0,0)"><path class="background" aria-hidden="true" d="M0,0h920v380h-920Z"/><g><g class="mark-line role-mark layer_0_marks" role="graphics-object" aria-roledescription="line mark container"><path aria-label="calendar_day: 2026-05-05; Cumulative count: 15; series: Labels" role="graphics-symbol" aria-roledescription="line mark" d="M10.952,344.375L32.857,344.375L32.857,325.375L54.762,325.375L54.762,325.375L76.667,325.375L76.667,287.375L98.571,287.375L98.571,287.375L120.476,287.375L120.476,244.625L142.381,244.625L142.381,244.625L164.286,244.625L164.286,244.625L186.19,244.625L186.19,244.625L208.095,244.625L208.095,197.125L230,197.125L230,197.125L251.905,197.125L251.905,197.125L273.81,197.125L273.81,197.125L295.714,197.125L295.714,197.125L317.619,197.125L317.619,197.125L339.524,197.125L339.524,197.125L361.429,197.125L361.429,197.125L383.333,197.125L383.333,197.125L405.238,197.125L405.238,197.125L427.143,197.125L427.143,197.125L449.048,197.125L449.048,197.125L470.952,197.125L470.952,197.125L492.857,197.125L492.857,197.125L514.762,197.125L514.762,197.125L536.667,197.125L536.667,197.125L558.571,197.125L558.571,197.125L580.476,197.125L580.476,197.125L602.381,197.125L602.381,197.125L624.286,197.125L624.286,197.125L646.19,197.125L646.19,197.125L668.095,197.125L668.095,197.125L690,197.125L690,197.125L711.905,197.125L711.905,190L733.81,190L733.81,190L755.714,190L755.714,190L777.619,190L777.619,190L799.524,190L799.524,168.625L821.429,168.625L821.429,168.625L843.333,168.625L843.333,168.625L865.238,168.625L865.238,168.625L887.143,168.625L887.143,168.625L909.048,168.625L909.048,168.625" stroke="#7c3aed" stroke-width="2.5" stroke-linecap="round" stroke-linejoin="round"/></g></g><path class="foreground" aria-hidden="true" d="" display="none"/></g><g transform="translate(0,0)"><path class="background" aria-hidden="true" d="M0,0h920v380h-920Z"/><g><g class="mark-line role-mark layer_0_marks" role="graphics-object" aria-roledescription="line mark container"><path aria-label="calendar_day: 2026-05-05; Cumulative count: 2; series: Scans" role="graphics-symbol" aria-roledescription="line mark" d="M10.952,375.25L32.857,375.25L32.857,370.5L54.762,370.5L54.762,363.375L76.667,363.375L76.667,358.625L98.571,358.625L98.571,334.875L120.476,334.875L120.476,313.5L142.381,313.5L142.381,285L164.286,285L164.286,263.625L186.19,263.625L186.19,244.625L208.095,244.625L208.095,218.5L230,218.5L230,206.625L251.905,206.625L251.905,190L273.81,190L273.81,182.875L295.714,182.875L295.714,171L317.619,171L317.619,168.625L339.524,168.625L339.524,149.625L361.429,149.625L361.429,135.375L383.333,135.375L383.333,128.25L405.238,128.25L405.238,118.75L427.143,118.75L427.143,116.375L449.048,116.375L449.048,114L470.952,114L470.952,109.25L492.857,109.25L492.857,109.25L514.762,109.25L514.762,109.25L536.667,109.25L536.667,106.875L558.571,106.875L558.571,99.75L580.476,99.75L580.476,99.75L602.381,99.75L602.381,99.75L624.286,99.75L624.286,95L646.19,95L646.19,92.625L668.095,92.625L668.095,92.625L690,92.625L690,85.5L711.905,85.5L711.905,85.5L733.81,85.5L733.81,83.125L755.714,83.125L755.714,78.375L777.619,78.375L777.619,71.25L799.524,71.25L799.524,71.25L821.429,71.25L821.429,64.125L843.333,64.125L843.333,57L865.238,57L865.238,49.875L887.143,49.875L887.143,42.75L909.048,42.75L909.048,42.75" stroke="#15803d" stroke-width="2.5" stroke-linecap="round" stroke-linejoin="round"/></g></g><path class="foreground" aria-hidden="true" d="" display="none"/></g></g><g class="mark-symbol role-mark layer_1_marks" role="graphics-object" aria-roledescription="symbol mark container"><path aria-label="calendar_day: 2026-05-05; Cumulative count: 15; series: Labels" role="graphics-symbol" aria-roledescription="point" transform="translate(10.952380952380963,344.375)" d="M4.61,0A4.61,4.61,0,1,1,-4.61,0A4.61,4.61,0,1,1,4.61,0" fill="#7c3aed" stroke="#faf7f2" stroke-width="2" opacity="1"/><path aria-label="calendar_day: 2026-05-05; Cumulative count: 2; series: Scans" role="graphics-symbol" aria-roledescription="point" transform="translate(10.952380952380963,375.25)" d="M4.61,0A4.61,4.61,0,1,1,-4.61,0A4.61,4.61,0,1,1,4.61,0" fill="#15803d" stroke="#faf7f2" stroke-width="2" opacity="1"/><path aria-label="calendar_day: 2026-05-06; Cumulative count: 23; series: Labels" role="graphics-symbol" aria-roledescription="point" transform="translate(32.85714285714287,325.375)" d="M4.61,0A4.61,4.61,0,1,1,-4.61,0A4.61,4.61,0,1,1,4.61,0" fill="#7c3aed" stroke="#faf7f2" stroke-width="2" opacity="1"/><path aria-label="calendar_day: 2026-05-06; Cumulative count: 4; series: Scans" role="graphics-symbol" aria-roledescription="point" transform="translate(32.85714285714287,370.5)" d="M4.61,0A4.61,4.61,0,1,1,-4.61,0A4.61,4.61,0,1,1,4.61,0" fill="#15803d" stroke="#faf7f2" stroke-width="2" opacity="1"/><path aria-label="calendar_day: 2026-05-07; Cumulative count: 23; series: Labels" role="graphics-symbol" aria-roledescription="point" transform="translate(54.76190476190477,325.375)" d="M4.61,0A4.61,4.61,0,1,1,-4.61,0A4.61,4.61,0,1,1,4.61,0" fill="#7c3aed" stroke="#faf7f2" stroke-width="2" opacity="1"/><path aria-label="calendar_day: 2026-05-07; Cumulative count: 7; series: Scans" role="graphics-symbol" aria-roledescription="point" transform="translate(54.76190476190477,363.375)" d="M4.61,0A4.61,4.61,0,1,1,-4.61,0A4.61,4.61,0,1,1,4.61,0" fill="#15803d" stroke="#faf7f2" stroke-width="2" opacity="1"/><path aria-label="calendar_day: 2026-05-08; Cumulative count: 39; series: Labels" role="graphics-symbol" aria-roledescription="point" transform="translate(76.66666666666669,287.375)" d="M4.61,0A4.61,4.61,0,1,1,-4.61,0A4.61,4.61,0,1,1,4.61,0" fill="#7c3aed" stroke="#faf7f2" stroke-width="2" opacity="1"/><path aria-label="calendar_day: 2026-05-08; Cumulative count: 9; series: Scans" role="graphics-symbol" aria-roledescription="point" transform="translate(76.66666666666669,358.625)" d="M4.61,0A4.61,4.61,0,1,1,-4.61,0A4.61,4.61,0,1,1,4.61,0" fill="#15803d" stroke="#faf7f2" stroke-width="2" opacity="1"/><path aria-label="calendar_day: 2026-05-09; Cumulative count: 39; series: Labels" role="graphics-symbol" aria-roledescription="point" transform="translate(98.57142857142858,287.375)" d="M4.61,0A4.61,4.61,0,1,1,-4.61,0A4.61,4.61,0,1,1,4.61,0" fill="#7c3aed" stroke="#faf7f2" stroke-width="2" opacity="1"/><path aria-label="calendar_day: 2026-05-09; Cumulative count: 19; series: Scans" role="graphics-symbol" aria-roledescription="point" transform="translate(98.57142857142858,334.875)" d="M4.61,0A4.61,4.61,0,1,1,-4.61,0A4.61,4.61,0,1,1,4.61,0" fill="#15803d" stroke="#faf7f2" stroke-width="2" opacity="1"/><path aria-label="calendar_day: 2026-05-10; Cumulative count: 57; series: Labels" role="graphics-symbol" aria-roledescription="point" transform="translate(120.47619047619048,244.62500000000003)" d="M4.61,0A4.61,4.61,0,1,1,-4.61,0A4.61,4.61,0,1,1,4.61,0" fill="#7c3aed" stroke="#faf7f2" stroke-width="2" opacity="1"/><path aria-label="calendar_day: 2026-05-10; Cumulative count: 28; series: Scans" role="graphics-symbol" aria-roledescription="point" transform="translate(120.47619047619048,313.5)" d="M4.61,0A4.61,4.61,0,1,1,-4.61,0A4.61,4.61,0,1,1,4.61,0" fill="#15803d" stroke="#faf7f2" stroke-width="2" opacity="1"/><path aria-label="calendar_day: 2026-05-11; Cumulative count: 57; series: Labels" role="graphics-symbol" aria-roledescription="point" transform="translate(142.3809523809524,244.62500000000003)" d="M4.61,0A4.61,4.61,0,1,1,-4.61,0A4.61,4.61,0,1,1,4.61,0" fill="#7c3aed" stroke="#faf7f2" stroke-width="2" opacity="1"/><path aria-label="calendar_day: 2026-05-11; Cumulative count: 40; series: Scans" role="graphics-symbol" aria-roledescription="point" transform="translate(142.3809523809524,285)" d="M4.61,0A4.61,4.61,0,1,1,-4.61,0A4.61,4.61,0,1,1,4.61,0" fill="#15803d" stroke="#faf7f2" stroke-width="2" opacity="1"/><path aria-label="calendar_day: 2026-05-12; Cumulative count: 57; series: Labels" role="graphics-symbol" aria-roledescription="point" transform="translate(164.2857142857143,244.62500000000003)" d="M4.61,0A4.61,4.61,0,1,1,-4.61,0A4.61,4.61,0,1,1,4.61,0" fill="#7c3aed" stroke="#faf7f2" stroke-width="2" opacity="1"/><path aria-label="calendar_day: 2026-05-12; Cumulative count: 49; series: Scans" role="graphics-symbol" aria-roledescription="point" transform="translate(164.2857142857143,263.625)" d="M4.61,0A4.61,4.61,0,1,1,-4.61,0A4.61,4.61,0,1,1,4.61,0" fill="#15803d" stroke="#faf7f2" stroke-width="2" opacity="1"/><path aria-label="calendar_day: 2026-05-13; Cumulative count: 57; series: Labels" role="graphics-symbol" aria-roledescription="point" transform="translate(186.1904761904762,244.62500000000003)" d="M4.61,0A4.61,4.61,0,1,1,-4.61,0A4.61,4.61,0,1,1,4.61,0" fill="#7c3aed" stroke="#faf7f2" stroke-width="2" opacity="1"/><path aria-label="calendar_day: 2026-05-13; Cumulative count: 57; series: Scans" role="graphics-symbol" aria-roledescription="point" transform="translate(186.1904761904762,244.62500000000003)" d="M4.61,0A4.61,4.61,0,1,1,-4.61,0A4.61,4.61,0,1,1,4.61,0" fill="#15803d" stroke="#faf7f2" stroke-width="2" opacity="1"/><path aria-label="calendar_day: 2026-05-14; Cumulative count: 77; series: Labels" role="graphics-symbol" aria-roledescription="point" transform="translate(208.0952380952381,197.12500000000003)" d="M4.61,0A4.61,4.61,0,1,1,-4.61,0A4.61,4.61,0,1,1,4.61,0" fill="#7c3aed" stroke="#faf7f2" stroke-width="2" opacity="1"/><path aria-label="calendar_day: 2026-05-14; Cumulative count: 68; series: Scans" role="graphics-symbol" aria-roledescription="point" transform="translate(208.0952380952381,218.49999999999997)" d="M4.61,0A4.61,4.61,0,1,1,-4.61,0A4.61,4.61,0,1,1,4.61,0" fill="#15803d" stroke="#faf7f2" stroke-width="2" opacity="1"/><path aria-label="calendar_day: 2026-05-15; Cumulative count: 77; series: Labels" role="graphics-symbol" aria-roledescription="point" transform="translate(230,197.12500000000003)" d="M4.61,0A4.61,4.61,0,1,1,-4.61,0A4.61,4.61,0,1,1,4.61,0" fill="#7c3aed" stroke="#faf7f2" stroke-width="2" opacity="1"/><path aria-label="calendar_day: 2026-05-15; Cumulative count: 73; series: Scans" role="graphics-symbol" aria-roledescription="point" transform="translate(230,206.62499999999997)" d="M4.61,0A4.61,4.61,0,1,1,-4.61,0A4.61,4.61,0,1,1,4.61,0" fill="#15803d" stroke="#faf7f2" stroke-width="2" opacity="1"/><path aria-label="calendar_day: 2026-05-16; Cumulative count: 77; series: Labels" role="graphics-symbol" aria-roledescription="point" transform="translate(251.90476190476193,197.12500000000003)" d="M4.61,0A4.61,4.61,0,1,1,-4.61,0A4.61,4.61,0,1,1,4.61,0" fill="#7c3aed" stroke="#faf7f2" stroke-width="2" opacity="1"/><path aria-label="calendar_day: 2026-05-16; Cumulative count: 80; series: Scans" role="graphics-symbol" aria-roledescription="point" transform="translate(251.90476190476193,190)" d="M4.61,0A4.61,4.61,0,1,1,-4.61,0A4.61,4.61,0,1,1,4.61,0" fill="#15803d" stroke="#faf7f2" stroke-width="2" opacity="1"/><path aria-label="calendar_day: 2026-05-17; Cumulative count: 77; series: Labels" role="graphics-symbol" aria-roledescription="point" transform="translate(273.80952380952385,197.12500000000003)" d="M4.61,0A4.61,4.61,0,1,1,-4.61,0A4.61,4.61,0,1,1,4.61,0" fill="#7c3aed" stroke="#faf7f2" stroke-width="2" opacity="1"/><path aria-label="calendar_day: 2026-05-17; Cumulative count: 83; series: Scans" role="graphics-symbol" aria-roledescription="point" transform="translate(273.80952380952385,182.87499999999997)" d="M4.61,0A4.61,4.61,0,1,1,-4.61,0A4.61,4.61,0,1,1,4.61,0" fill="#15803d" stroke="#faf7f2" stroke-width="2" opacity="1"/><path aria-label="calendar_day: 2026-05-18; Cumulative count: 77; series: Labels" role="graphics-symbol" aria-roledescription="point" transform="translate(295.7142857142857,197.12500000000003)" d="M4.61,0A4.61,4.61,0,1,1,-4.61,0A4.61,4.61,0,1,1,4.61,0" fill="#7c3aed" stroke="#faf7f2" stroke-width="2" opacity="1"/><path aria-label="calendar_day: 2026-05-18; Cumulative count: 88; series: Scans" role="graphics-symbol" aria-roledescription="point" transform="translate(295.7142857142857,170.99999999999997)" d="M4.61,0A4.61,4.61,0,1,1,-4.61,0A4.61,4.61,0,1,1,4.61,0" fill="#15803d" stroke="#faf7f2" stroke-width="2" opacity="1"/><path aria-label="calendar_day: 2026-05-19; Cumulative count: 77; series: Labels" role="graphics-symbol" aria-roledescription="point" transform="translate(317.61904761904765,197.12500000000003)" d="M4.61,0A4.61,4.61,0,1,1,-4.61,0A4.61,4.61,0,1,1,4.61,0" fill="#7c3aed" stroke="#faf7f2" stroke-width="2" opacity="1"/><path aria-label="calendar_day: 2026-05-19; Cumulative count: 89; series: Scans" role="graphics-symbol" aria-roledescription="point" transform="translate(317.61904761904765,168.625)" d="M4.61,0A4.61,4.61,0,1,1,-4.61,0A4.61,4.61,0,1,1,4.61,0" fill="#15803d" stroke="#faf7f2" stroke-width="2" opacity="1"/><path aria-label="calendar_day: 2026-05-20; Cumulative count: 77; series: Labels" role="graphics-symbol" aria-roledescription="point" transform="translate(339.5238095238095,197.12500000000003)" d="M4.61,0A4.61,4.61,0,1,1,-4.61,0A4.61,4.61,0,1,1,4.61,0" fill="#7c3aed" stroke="#faf7f2" stroke-width="2" opacity="1"/><path aria-label="calendar_day: 2026-05-20; Cumulative count: 97; series: Scans" role="graphics-symbol" aria-roledescription="point" transform="translate(339.5238095238095,149.62500000000003)" d="M4.61,0A4.61,4.61,0,1,1,-4.61,0A4.61,4.61,0,1,1,4.61,0" fill="#15803d" stroke="#faf7f2" stroke-width="2" opacity="1"/><path aria-label="calendar_day: 2026-05-21; Cumulative count: 77; series: Labels" role="graphics-symbol" aria-roledescription="point" transform="translate(361.42857142857144,197.12500000000003)" d="M4.61,0A4.61,4.61,0,1,1,-4.61,0A4.61,4.61,0,1,1,4.61,0" fill="#7c3aed" stroke="#faf7f2" stroke-width="2" opacity="1"/><path aria-label="calendar_day: 2026-05-21; Cumulative count: 103; series: Scans" role="graphics-symbol" aria-roledescription="point" transform="translate(361.42857142857144,135.37499999999997)" d="M4.61,0A4.61,4.61,0,1,1,-4.61,0A4.61,4.61,0,1,1,4.61,0" fill="#15803d" stroke="#faf7f2" stroke-width="2" opacity="1"/><path aria-label="calendar_day: 2026-05-22; Cumulative count: 77; series: Labels" role="graphics-symbol" aria-roledescription="point" transform="translate(383.33333333333337,197.12500000000003)" d="M4.61,0A4.61,4.61,0,1,1,-4.61,0A4.61,4.61,0,1,1,4.61,0" fill="#7c3aed" stroke="#faf7f2" stroke-width="2" opacity="1"/><path aria-label="calendar_day: 2026-05-22; Cumulative count: 106; series: Scans" role="graphics-symbol" aria-roledescription="point" transform="translate(383.33333333333337,128.25)" d="M4.61,0A4.61,4.61,0,1,1,-4.61,0A4.61,4.61,0,1,1,4.61,0" fill="#15803d" stroke="#faf7f2" stroke-width="2" opacity="1"/><path aria-label="calendar_day: 2026-05-23; Cumulative count: 77; series: Labels" role="graphics-symbol" aria-roledescription="point" transform="translate(405.23809523809524,197.12500000000003)" d="M4.61,0A4.61,4.61,0,1,1,-4.61,0A4.61,4.61,0,1,1,4.61,0" fill="#7c3aed" stroke="#faf7f2" stroke-width="2" opacity="1"/><path aria-label="calendar_day: 2026-05-23; Cumulative count: 110; series: Scans" role="graphics-symbol" aria-roledescription="point" transform="translate(405.23809523809524,118.75)" d="M4.61,0A4.61,4.61,0,1,1,-4.61,0A4.61,4.61,0,1,1,4.61,0" fill="#15803d" stroke="#faf7f2" stroke-width="2" opacity="1"/><path aria-label="calendar_day: 2026-05-24; Cumulative count: 77; series: Labels" role="graphics-symbol" aria-roledescription="point" transform="translate(427.14285714285717,197.12500000000003)" d="M4.61,0A4.61,4.61,0,1,1,-4.61,0A4.61,4.61,0,1,1,4.61,0" fill="#7c3aed" stroke="#faf7f2" stroke-width="2" opacity="1"/><path aria-label="calendar_day: 2026-05-24; Cumulative count: 111; series: Scans" role="graphics-symbol" aria-roledescription="point" transform="translate(427.14285714285717,116.37500000000001)" d="M4.61,0A4.61,4.61,0,1,1,-4.61,0A4.61,4.61,0,1,1,4.61,0" fill="#15803d" stroke="#faf7f2" stroke-width="2" opacity="1"/><path aria-label="calendar_day: 2026-05-25; Cumulative count: 77; series: Labels" role="graphics-symbol" aria-roledescription="point" transform="translate(449.04761904761904,197.12500000000003)" d="M4.61,0A4.61,4.61,0,1,1,-4.61,0A4.61,4.61,0,1,1,4.61,0" fill="#7c3aed" stroke="#faf7f2" stroke-width="2" opacity="1"/><path aria-label="calendar_day: 2026-05-25; Cumulative count: 112; series: Scans" role="graphics-symbol" aria-roledescription="point" transform="translate(449.04761904761904,114.00000000000001)" d="M4.61,0A4.61,4.61,0,1,1,-4.61,0A4.61,4.61,0,1,1,4.61,0" fill="#15803d" stroke="#faf7f2" stroke-width="2" opacity="1"/><path aria-label="calendar_day: 2026-05-26; Cumulative count: 77; series: Labels" role="graphics-symbol" aria-roledescription="point" transform="translate(470.95238095238096,197.12500000000003)" d="M4.61,0A4.61,4.61,0,1,1,-4.61,0A4.61,4.61,0,1,1,4.61,0" fill="#7c3aed" stroke="#faf7f2" stroke-width="2" opacity="1"/><path aria-label="calendar_day: 2026-05-26; Cumulative count: 114; series: Scans" role="graphics-symbol" aria-roledescription="point" transform="translate(470.95238095238096,109.24999999999999)" d="M4.61,0A4.61,4.61,0,1,1,-4.61,0A4.61,4.61,0,1,1,4.61,0" fill="#15803d" stroke="#faf7f2" stroke-width="2" opacity="1"/><path aria-label="calendar_day: 2026-05-27; Cumulative count: 77; series: Labels" role="graphics-symbol" aria-roledescription="point" transform="translate(492.8571428571429,197.12500000000003)" d="M4.61,0A4.61,4.61,0,1,1,-4.61,0A4.61,4.61,0,1,1,4.61,0" fill="#7c3aed" stroke="#faf7f2" stroke-width="2" opacity="1"/><path aria-label="calendar_day: 2026-05-27; Cumulative count: 114; series: Scans" role="graphics-symbol" aria-roledescription="point" transform="translate(492.8571428571429,109.24999999999999)" d="M4.61,0A4.61,4.61,0,1,1,-4.61,0A4.61,4.61,0,1,1,4.61,0" fill="#15803d" stroke="#faf7f2" stroke-width="2" opacity="1"/><path aria-label="calendar_day: 2026-05-28; Cumulative count: 77; series: Labels" role="graphics-symbol" aria-roledescription="point" transform="translate(514.7619047619048,197.12500000000003)" d="M4.61,0A4.61,4.61,0,1,1,-4.61,0A4.61,4.61,0,1,1,4.61,0" fill="#7c3aed" stroke="#faf7f2" stroke-width="2" opacity="1"/><path aria-label="calendar_day: 2026-05-28; Cumulative count: 114; series: Scans" role="graphics-symbol" aria-roledescription="point" transform="translate(514.7619047619048,109.24999999999999)" d="M4.61,0A4.61,4.61,0,1,1,-4.61,0A4.61,4.61,0,1,1,4.61,0" fill="#15803d" stroke="#faf7f2" stroke-width="2" opacity="1"/><path aria-label="calendar_day: 2026-05-29; Cumulative count: 77; series: Labels" role="graphics-symbol" aria-roledescription="point" transform="translate(536.6666666666667,197.12500000000003)" d="M4.61,0A4.61,4.61,0,1,1,-4.61,0A4.61,4.61,0,1,1,4.61,0" fill="#7c3aed" stroke="#faf7f2" stroke-width="2" opacity="1"/><path aria-label="calendar_day: 2026-05-29; Cumulative count: 115; series: Scans" role="graphics-symbol" aria-roledescription="point" transform="translate(536.6666666666667,106.875)" d="M4.61,0A4.61,4.61,0,1,1,-4.61,0A4.61,4.61,0,1,1,4.61,0" fill="#15803d" stroke="#faf7f2" stroke-width="2" opacity="1"/><path aria-label="calendar_day: 2026-05-30; Cumulative count: 77; series: Labels" role="graphics-symbol" aria-roledescription="point" transform="translate(558.5714285714286,197.12500000000003)" d="M4.61,0A4.61,4.61,0,1,1,-4.61,0A4.61,4.61,0,1,1,4.61,0" fill="#7c3aed" stroke="#faf7f2" stroke-width="2" opacity="1"/><path aria-label="calendar_day: 2026-05-30; Cumulative count: 118; series: Scans" role="graphics-symbol" aria-roledescription="point" transform="translate(558.5714285714286,99.74999999999999)" d="M4.61,0A4.61,4.61,0,1,1,-4.61,0A4.61,4.61,0,1,1,4.61,0" fill="#15803d" stroke="#faf7f2" stroke-width="2" opacity="1"/><path aria-label="calendar_day: 2026-05-31; Cumulative count: 77; series: Labels" role="graphics-symbol" aria-roledescription="point" transform="translate(580.4761904761905,197.12500000000003)" d="M4.61,0A4.61,4.61,0,1,1,-4.61,0A4.61,4.61,0,1,1,4.61,0" fill="#7c3aed" stroke="#faf7f2" stroke-width="2" opacity="1"/><path aria-label="calendar_day: 2026-05-31; Cumulative count: 118; series: Scans" role="graphics-symbol" aria-roledescription="point" transform="translate(580.4761904761905,99.74999999999999)" d="M4.61,0A4.61,4.61,0,1,1,-4.61,0A4.61,4.61,0,1,1,4.61,0" fill="#15803d" stroke="#faf7f2" stroke-width="2" opacity="1"/><path aria-label="calendar_day: 2026-06-01; Cumulative count: 77; series: Labels" role="graphics-symbol" aria-roledescription="point" transform="translate(602.3809523809524,197.12500000000003)" d="M4.61,0A4.61,4.61,0,1,1,-4.61,0A4.61,4.61,0,1,1,4.61,0" fill="#7c3aed" stroke="#faf7f2" stroke-width="2" opacity="1"/><path aria-label="calendar_day: 2026-06-01; Cumulative count: 118; series: Scans" role="graphics-symbol" aria-roledescription="point" transform="translate(602.3809523809524,99.74999999999999)" d="M4.61,0A4.61,4.61,0,1,1,-4.61,0A4.61,4.61,0,1,1,4.61,0" fill="#15803d" stroke="#faf7f2" stroke-width="2" opacity="1"/><path aria-label="calendar_day: 2026-06-02; Cumulative count: 77; series: Labels" role="graphics-symbol" aria-roledescription="point" transform="translate(624.2857142857143,197.12500000000003)" d="M4.61,0A4.61,4.61,0,1,1,-4.61,0A4.61,4.61,0,1,1,4.61,0" fill="#7c3aed" stroke="#faf7f2" stroke-width="2" opacity="1"/><path aria-label="calendar_day: 2026-06-02; Cumulative count: 120; series: Scans" role="graphics-symbol" aria-roledescription="point" transform="translate(624.2857142857143,95)" d="M4.61,0A4.61,4.61,0,1,1,-4.61,0A4.61,4.61,0,1,1,4.61,0" fill="#15803d" stroke="#faf7f2" stroke-width="2" opacity="1"/><path aria-label="calendar_day: 2026-06-03; Cumulative count: 77; series: Labels" role="graphics-symbol" aria-roledescription="point" transform="translate(646.1904761904763,197.12500000000003)" d="M4.61,0A4.61,4.61,0,1,1,-4.61,0A4.61,4.61,0,1,1,4.61,0" fill="#7c3aed" stroke="#faf7f2" stroke-width="2" opacity="1"/><path aria-label="calendar_day: 2026-06-03; Cumulative count: 121; series: Scans" role="graphics-symbol" aria-roledescription="point" transform="translate(646.1904761904763,92.62500000000001)" d="M4.61,0A4.61,4.61,0,1,1,-4.61,0A4.61,4.61,0,1,1,4.61,0" fill="#15803d" stroke="#faf7f2" stroke-width="2" opacity="1"/><path aria-label="calendar_day: 2026-06-04; Cumulative count: 77; series: Labels" role="graphics-symbol" aria-roledescription="point" transform="translate(668.0952380952381,197.12500000000003)" d="M4.61,0A4.61,4.61,0,1,1,-4.61,0A4.61,4.61,0,1,1,4.61,0" fill="#7c3aed" stroke="#faf7f2" stroke-width="2" opacity="1"/><path aria-label="calendar_day: 2026-06-04; Cumulative count: 121; series: Scans" role="graphics-symbol" aria-roledescription="point" transform="translate(668.0952380952381,92.62500000000001)" d="M4.61,0A4.61,4.61,0,1,1,-4.61,0A4.61,4.61,0,1,1,4.61,0" fill="#15803d" stroke="#faf7f2" stroke-width="2" opacity="1"/><path aria-label="calendar_day: 2026-06-05; Cumulative count: 77; series: Labels" role="graphics-symbol" aria-roledescription="point" transform="translate(690,197.12500000000003)" d="M4.61,0A4.61,4.61,0,1,1,-4.61,0A4.61,4.61,0,1,1,4.61,0" fill="#7c3aed" stroke="#faf7f2" stroke-width="2" opacity="1"/><path aria-label="calendar_day: 2026-06-05; Cumulative count: 124; series: Scans" role="graphics-symbol" aria-roledescription="point" transform="translate(690,85.49999999999999)" d="M4.61,0A4.61,4.61,0,1,1,-4.61,0A4.61,4.61,0,1,1,4.61,0" fill="#15803d" stroke="#faf7f2" stroke-width="2" opacity="1"/><path aria-label="calendar_day: 2026-06-06; Cumulative count: 80; series: Labels" role="graphics-symbol" aria-roledescription="point" transform="translate(711.9047619047619,190)" d="M4.61,0A4.61,4.61,0,1,1,-4.61,0A4.61,4.61,0,1,1,4.61,0" fill="#7c3aed" stroke="#faf7f2" stroke-width="2" opacity="1"/><path aria-label="calendar_day: 2026-06-06; Cumulative count: 124; series: Scans" role="graphics-symbol" aria-roledescription="point" transform="translate(711.9047619047619,85.49999999999999)" d="M4.61,0A4.61,4.61,0,1,1,-4.61,0A4.61,4.61,0,1,1,4.61,0" fill="#15803d" stroke="#faf7f2" stroke-width="2" opacity="1"/><path aria-label="calendar_day: 2026-06-07; Cumulative count: 80; series: Labels" role="graphics-symbol" aria-roledescription="point" transform="translate(733.8095238095239,190)" d="M4.61,0A4.61,4.61,0,1,1,-4.61,0A4.61,4.61,0,1,1,4.61,0" fill="#7c3aed" stroke="#faf7f2" stroke-width="2" opacity="1"/><path aria-label="calendar_day: 2026-06-07; Cumulative count: 125; series: Scans" role="graphics-symbol" aria-roledescription="point" transform="translate(733.8095238095239,83.125)" d="M4.61,0A4.61,4.61,0,1,1,-4.61,0A4.61,4.61,0,1,1,4.61,0" fill="#15803d" stroke="#faf7f2" stroke-width="2" opacity="1"/><path aria-label="calendar_day: 2026-06-08; Cumulative count: 80; series: Labels" role="graphics-symbol" aria-roledescription="point" transform="translate(755.7142857142858,190)" d="M4.61,0A4.61,4.61,0,1,1,-4.61,0A4.61,4.61,0,1,1,4.61,0" fill="#7c3aed" stroke="#faf7f2" stroke-width="2" opacity="1"/><path aria-label="calendar_day: 2026-06-08; Cumulative count: 127; series: Scans" role="graphics-symbol" aria-roledescription="point" transform="translate(755.7142857142858,78.37500000000001)" d="M4.61,0A4.61,4.61,0,1,1,-4.61,0A4.61,4.61,0,1,1,4.61,0" fill="#15803d" stroke="#faf7f2" stroke-width="2" opacity="1"/><path aria-label="calendar_day: 2026-06-09; Cumulative count: 80; series: Labels" role="graphics-symbol" aria-roledescription="point" transform="translate(777.6190476190476,190)" d="M4.61,0A4.61,4.61,0,1,1,-4.61,0A4.61,4.61,0,1,1,4.61,0" fill="#7c3aed" stroke="#faf7f2" stroke-width="2" opacity="1"/><path aria-label="calendar_day: 2026-06-09; Cumulative count: 130; series: Scans" role="graphics-symbol" aria-roledescription="point" transform="translate(777.6190476190476,71.25)" d="M4.61,0A4.61,4.61,0,1,1,-4.61,0A4.61,4.61,0,1,1,4.61,0" fill="#15803d" stroke="#faf7f2" stroke-width="2" opacity="1"/><path aria-label="calendar_day: 2026-06-10; Cumulative count: 89; series: Labels" role="graphics-symbol" aria-roledescription="point" transform="translate(799.5238095238095,168.625)" d="M4.61,0A4.61,4.61,0,1,1,-4.61,0A4.61,4.61,0,1,1,4.61,0" fill="#7c3aed" stroke="#faf7f2" stroke-width="2" opacity="1"/><path aria-label="calendar_day: 2026-06-10; Cumulative count: 130; series: Scans" role="graphics-symbol" aria-roledescription="point" transform="translate(799.5238095238095,71.25)" d="M4.61,0A4.61,4.61,0,1,1,-4.61,0A4.61,4.61,0,1,1,4.61,0" fill="#15803d" stroke="#faf7f2" stroke-width="2" opacity="1"/><path aria-label="calendar_day: 2026-06-11; Cumulative count: 89; series: Labels" role="graphics-symbol" aria-roledescription="point" transform="translate(821.4285714285714,168.625)" d="M4.61,0A4.61,4.61,0,1,1,-4.61,0A4.61,4.61,0,1,1,4.61,0" fill="#7c3aed" stroke="#faf7f2" stroke-width="2" opacity="1"/><path aria-label="calendar_day: 2026-06-11; Cumulative count: 133; series: Scans" role="graphics-symbol" aria-roledescription="point" transform="translate(821.4285714285714,64.12499999999999)" d="M4.61,0A4.61,4.61,0,1,1,-4.61,0A4.61,4.61,0,1,1,4.61,0" fill="#15803d" stroke="#faf7f2" stroke-width="2" opacity="1"/><path aria-label="calendar_day: 2026-06-12; Cumulative count: 89; series: Labels" role="graphics-symbol" aria-roledescription="point" transform="translate(843.3333333333334,168.625)" d="M4.61,0A4.61,4.61,0,1,1,-4.61,0A4.61,4.61,0,1,1,4.61,0" fill="#7c3aed" stroke="#faf7f2" stroke-width="2" opacity="1"/><path aria-label="calendar_day: 2026-06-12; Cumulative count: 136; series: Scans" role="graphics-symbol" aria-roledescription="point" transform="translate(843.3333333333334,57.00000000000001)" d="M4.61,0A4.61,4.61,0,1,1,-4.61,0A4.61,4.61,0,1,1,4.61,0" fill="#15803d" stroke="#faf7f2" stroke-width="2" opacity="1"/><path aria-label="calendar_day: 2026-06-13; Cumulative count: 89; series: Labels" role="graphics-symbol" aria-roledescription="point" transform="translate(865.2380952380953,168.625)" d="M4.61,0A4.61,4.61,0,1,1,-4.61,0A4.61,4.61,0,1,1,4.61,0" fill="#7c3aed" stroke="#faf7f2" stroke-width="2" opacity="1"/><path aria-label="calendar_day: 2026-06-13; Cumulative count: 139; series: Scans" role="graphics-symbol" aria-roledescription="point" transform="translate(865.2380952380953,49.87499999999999)" d="M4.61,0A4.61,4.61,0,1,1,-4.61,0A4.61,4.61,0,1,1,4.61,0" fill="#15803d" stroke="#faf7f2" stroke-width="2" opacity="1"/><path aria-label="calendar_day: 2026-06-14; Cumulative count: 89; series: Labels" role="graphics-symbol" aria-roledescription="point" transform="translate(887.1428571428571,168.625)" d="M4.61,0A4.61,4.61,0,1,1,-4.61,0A4.61,4.61,0,1,1,4.61,0" fill="#7c3aed" stroke="#faf7f2" stroke-width="2" opacity="1"/><path aria-label="calendar_day: 2026-06-14; Cumulative count: 142; series: Scans" role="graphics-symbol" aria-roledescription="point" transform="translate(887.1428571428571,42.750000000000014)" d="M4.61,0A4.61,4.61,0,1,1,-4.61,0A4.61,4.61,0,1,1,4.61,0" fill="#15803d" stroke="#faf7f2" stroke-width="2" opacity="1"/><path aria-label="calendar_day: 2026-06-15; Cumulative count: 89; series: Labels" role="graphics-symbol" aria-roledescription="point" transform="translate(909.047619047619,168.625)" d="M4.61,0A4.61,4.61,0,1,1,-4.61,0A4.61,4.61,0,1,1,4.61,0" fill="#7c3aed" stroke="#faf7f2" stroke-width="2" opacity="1"/><path aria-label="calendar_day: 2026-06-15; Cumulative count: 142; series: Scans" role="graphics-symbol" aria-roledescription="point" transform="translate(909.047619047619,42.750000000000014)" d="M4.61,0A4.61,4.61,0,1,1,-4.61,0A4.61,4.61,0,1,1,4.61,0" fill="#15803d" stroke="#faf7f2" stroke-width="2" opacity="1"/></g><g class="mark-group role-legend" role="graphics-symbol" aria-roledescription="legend" aria-label="Symbol legend for fill color and stroke color with 2 values: Labels, Scans"><g transform="translate(0,-15)"><path class="background" aria-hidden="true" d="M0,0h151v13h-151Z" pointer-events="none"/><g><g class="mark-group role-legend-entry"><g transform="translate(0,0)"><path class="background" aria-hidden="true" d="M0,0h0v0h0Z" pointer-events="none"/><g><g class="mark-group role-scope" role="graphics-object" aria-roledescription="group mark container"><g transform="translate(0,0.25)"><path class="background" aria-hidden="true" d="M0,0h74v12.5h-74Z" pointer-events="none" opacity="1"/><g><g class="mark-symbol role-legend-symbol" pointer-events="none"><path transform="translate(6.5,6.5)" d="M-5,0L5,0" fill="#7c3aed" stroke="#7c3aed" stroke-width="3" stroke-linejoin="round" opacity="1"/></g><g class="mark-text role-legend-label" pointer-events="none"><text text-anchor="start" transform="translate(17,10.5)" font-family="ui-sans-serif, system-ui, &quot;Segoe UI&quot;, Roboto, Helvetica, Arial, sans-serif" font-size="12px" fill="#000" opacity="1">Labels</text></g></g><path class="foreground" aria-hidden="true" d="" pointer-events="none" display="none"/></g><g transform="translate(86,0.25)"><path class="background" aria-hidden="true" d="M0,0h65v12.5h-65Z" pointer-events="none" opacity="1"/><g><g class="mark-symbol role-legend-symbol" pointer-events="none"><path transform="translate(6.5,6.5)" d="M-5,0L5,0" fill="#15803d" stroke="#15803d" stroke-width="3" stroke-linejoin="round" opacity="1"/></g><g class="mark-text role-legend-label" pointer-events="none"><text text-anchor="start" transform="translate(17,10.5)" font-family="ui-sans-serif, system-ui, &quot;Segoe UI&quot;, Roboto, Helvetica, Arial, sans-serif" font-size="12px" fill="#000" opacity="1">Scans</text></g></g><path class="foreground" aria-hidden="true" d="" pointer-events="none" display="none"/></g></g></g><path class="foreground" aria-hidden="true" d="" pointer-events="none" display="none"/></g></g></g><path class="foreground" aria-hidden="true" d="" pointer-events="none" display="none"/></g></g><g class="mark-group role-title"><g transform="translate(0,-41)"><path class="background" aria-hidden="true" d="M0,0h0v0h0Z" pointer-events="none"/><g><g class="mark-text role-title-text" role="graphics-symbol" aria-roledescription="title" aria-label="Title text 'QR Code Tracking in Berwyn, IL'" pointer-events="none"><text text-anchor="start" transform="translate(0,16)" font-family="ui-sans-serif, system-ui, &quot;Segoe UI&quot;, Roboto, Helvetica, Arial, sans-serif" font-size="20px" font-weight="650" fill="#292524" opacity="1">QR Code Tracking in Berwyn, IL</text></g></g><path class="foreground" aria-hidden="true" d="" pointer-events="none" display="none"/></g></g></g><path class="foreground" aria-hidden="true" d="" display="none"/></g></g></g></svg>