<svg xmlns="http://www.w3.org/2000/svg" xmlns:xlink="http://www.w3.org/1999/xlink" version="1.1" class="marks" width="998" height="481" viewBox="0 0 998 481"><rect width="998" height="481" fill="#faf7f2"/><g fill="none" stroke-miterlimit="10" transform="translate(54,49)"><g class="mark-group role-frame root" role="graphics-object" aria-roledescription="group mark container"><g transform="translate(0,0)"><path class="background" aria-hidden="true" d="M0,0h920v380h-920Z"/><g><g class="mark-group role-axis" aria-hidden="true"><g transform="translate(0.5,0.5)"><path class="background" aria-hidden="true" d="M0,0h0v0h0Z" pointer-events="none"/><g><g class="mark-rule role-axis-grid" pointer-events="none"><line transform="translate(0,380)" x2="920" y2="0" stroke="#e7e5e4" stroke-width="1" opacity="1"/><line transform="translate(0,348)" x2="920" y2="0" stroke="#e7e5e4" stroke-width="1" opacity="1"/><line transform="translate(0,317)" x2="920" y2="0" stroke="#e7e5e4" stroke-width="1" opacity="1"/><line transform="translate(0,285)" x2="920" y2="0" stroke="#e7e5e4" stroke-width="1" opacity="1"/><line transform="translate(0,253)" x2="920" y2="0" stroke="#e7e5e4" stroke-width="1" opacity="1"/><line transform="translate(0,222)" x2="920" y2="0" stroke="#e7e5e4" stroke-width="1" opacity="1"/><line transform="translate(0,190)" x2="920" y2="0" stroke="#e7e5e4" stroke-width="1" opacity="1"/><line transform="translate(0,158)" x2="920" y2="0" stroke="#e7e5e4" stroke-width="1" opacity="1"/><line transform="translate(0,127)" x2="920" y2="0" stroke="#e7e5e4" stroke-width="1" opacity="1"/><line transform="translate(0,95)" x2="920" y2="0" stroke="#e7e5e4" stroke-width="1" opacity="1"/><line transform="translate(0,63)" x2="920" y2="0" stroke="#e7e5e4" stroke-width="1" opacity="1"/><line transform="translate(0,32)" x2="920" y2="0" stroke="#e7e5e4" stroke-width="1" opacity="1"/><line transform="translate(0,0)" x2="920" y2="0" stroke="#e7e5e4" stroke-width="1" opacity="1"/></g></g><path class="foreground" aria-hidden="true" d="" pointer-events="none" display="none"/></g></g><g class="mark-group role-axis" role="graphics-symbol" aria-roledescription="axis" aria-label="X-axis for a discrete scale with 26 values: 2026-05-05, 2026-05-06, 2026-05-07, 2026-05-08, 2026-05-09, ending with 2026-05-30"><g transform="translate(0.5,380.5)"><path class="background" aria-hidden="true" d="M0,0h0v0h0Z" pointer-events="none"/><g><g class="mark-text role-axis-label" pointer-events="none"><text text-anchor="end" transform="translate(17.69230769230768,6) rotate(322) translate(0,8)" font-family="ui-sans-serif, system-ui, &quot;Segoe UI&quot;, Roboto, Helvetica, Arial, sans-serif" font-size="10px" fill="#57534e" opacity="1">May  5</text><text text-anchor="end" transform="translate(53.076923076923066,6) rotate(322) translate(0,8)" font-family="ui-sans-serif, system-ui, &quot;Segoe UI&quot;, Roboto, Helvetica, Arial, sans-serif" font-size="10px" fill="#57534e" opacity="0">May  6</text><text text-anchor="end" transform="translate(88.46153846153845,6) rotate(322) translate(0,8)" font-family="ui-sans-serif, system-ui, &quot;Segoe UI&quot;, Roboto, Helvetica, Arial, sans-serif" font-size="10px" fill="#57534e" opacity="1">May  7</text><text text-anchor="end" transform="translate(123.84615384615384,6) rotate(322) translate(0,8)" font-family="ui-sans-serif, system-ui, &quot;Segoe UI&quot;, Roboto, Helvetica, Arial, sans-serif" font-size="10px" fill="#57534e" opacity="0">May  8</text><text text-anchor="end" transform="translate(159.23076923076923,6) rotate(322) translate(0,8)" font-family="ui-sans-serif, system-ui, &quot;Segoe UI&quot;, Roboto, Helvetica, Arial, sans-serif" font-size="10px" fill="#57534e" opacity="1">May  9</text><text text-anchor="end" transform="translate(194.6153846153846,6) rotate(322) translate(0,8)" font-family="ui-sans-serif, system-ui, &quot;Segoe UI&quot;, Roboto, Helvetica, Arial, sans-serif" font-size="10px" fill="#57534e" opacity="0">May 10</text><text text-anchor="end" transform="translate(230,6) rotate(322) translate(0,8)" font-family="ui-sans-serif, system-ui, &quot;Segoe UI&quot;, Roboto, Helvetica, Arial, sans-serif" font-size="10px" fill="#57534e" opacity="1">May 11</text><text text-anchor="end" transform="translate(265.38461538461536,6) rotate(322) translate(0,8)" font-family="ui-sans-serif, system-ui, &quot;Segoe UI&quot;, Roboto, Helvetica, Arial, sans-serif" font-size="10px" fill="#57534e" opacity="0">May 12</text><text text-anchor="end" transform="translate(300.7692307692308,6) rotate(322) translate(0,8)" font-family="ui-sans-serif, system-ui, &quot;Segoe UI&quot;, Roboto, Helvetica, Arial, sans-serif" font-size="10px" fill="#57534e" opacity="1">May 13</text><text text-anchor="end" transform="translate(336.15384615384613,6) rotate(322) translate(0,8)" font-family="ui-sans-serif, system-ui, &quot;Segoe UI&quot;, Roboto, Helvetica, Arial, sans-serif" font-size="10px" fill="#57534e" opacity="0">May 14</text><text text-anchor="end" transform="translate(371.53846153846155,6) rotate(322) translate(0,8)" font-family="ui-sans-serif, system-ui, &quot;Segoe UI&quot;, Roboto, Helvetica, Arial, sans-serif" font-size="10px" fill="#57534e" opacity="1">May 15</text><text text-anchor="end" transform="translate(406.92307692307696,6) rotate(322) translate(0,8)" font-family="ui-sans-serif, system-ui, &quot;Segoe UI&quot;, Roboto, Helvetica, Arial, sans-serif" font-size="10px" fill="#57534e" opacity="0">May 16</text><text text-anchor="end" transform="translate(442.3076923076923,6) rotate(322) translate(0,8)" font-family="ui-sans-serif, system-ui, &quot;Segoe UI&quot;, Roboto, Helvetica, Arial, sans-serif" font-size="10px" fill="#57534e" opacity="1">May 17</text><text text-anchor="end" transform="translate(477.6923076923077,6) rotate(322) translate(0,8)" font-family="ui-sans-serif, system-ui, &quot;Segoe UI&quot;, Roboto, Helvetica, Arial, sans-serif" font-size="10px" fill="#57534e" opacity="0">May 18</text><text text-anchor="end" transform="translate(513.0769230769231,6) rotate(322) translate(0,8)" font-family="ui-sans-serif, system-ui, &quot;Segoe UI&quot;, Roboto, Helvetica, Arial, sans-serif" font-size="10px" fill="#57534e" opacity="1">May 19</text><text text-anchor="end" transform="translate(548.4615384615386,6) rotate(322) translate(0,8)" font-family="ui-sans-serif, system-ui, &quot;Segoe UI&quot;, Roboto, Helvetica, Arial, sans-serif" font-size="10px" fill="#57534e" opacity="0">May 20</text><text text-anchor="end" transform="translate(583.8461538461538,6) rotate(322) translate(0,8)" font-family="ui-sans-serif, system-ui, &quot;Segoe UI&quot;, Roboto, Helvetica, Arial, sans-serif" font-size="10px" fill="#57534e" opacity="1">May 21</text><text text-anchor="end" transform="translate(619.2307692307693,6) rotate(322) translate(0,8)" font-family="ui-sans-serif, system-ui, &quot;Segoe UI&quot;, Roboto, Helvetica, Arial, sans-serif" font-size="10px" fill="#57534e" opacity="0">May 22</text><text text-anchor="end" transform="translate(654.6153846153845,6) rotate(322) translate(0,8)" font-family="ui-sans-serif, system-ui, &quot;Segoe UI&quot;, Roboto, Helvetica, Arial, sans-serif" font-size="10px" fill="#57534e" opacity="1">May 23</text><text text-anchor="end" transform="translate(690,6) rotate(322) translate(0,8)" font-family="ui-sans-serif, system-ui, &quot;Segoe UI&quot;, Roboto, Helvetica, Arial, sans-serif" font-size="10px" fill="#57534e" opacity="0">May 24</text><text text-anchor="end" transform="translate(725.3846153846155,6) rotate(322) translate(0,8)" font-family="ui-sans-serif, system-ui, &quot;Segoe UI&quot;, Roboto, Helvetica, Arial, sans-serif" font-size="10px" fill="#57534e" opacity="1">May 25</text><text text-anchor="end" transform="translate(760.7692307692307,6) rotate(322) translate(0,8)" font-family="ui-sans-serif, system-ui, &quot;Segoe UI&quot;, Roboto, Helvetica, Arial, sans-serif" font-size="10px" fill="#57534e" opacity="0">May 26</text><text text-anchor="end" transform="translate(796.1538461538462,6) rotate(322) translate(0,8)" font-family="ui-sans-serif, system-ui, &quot;Segoe UI&quot;, Roboto, Helvetica, Arial, sans-serif" font-size="10px" fill="#57534e" opacity="1">May 27</text><text text-anchor="end" transform="translate(831.5384615384617,6) rotate(322) translate(0,8)" font-family="ui-sans-serif, system-ui, &quot;Segoe UI&quot;, Roboto, Helvetica, Arial, sans-serif" font-size="10px" fill="#57534e" opacity="0">May 28</text><text text-anchor="end" transform="translate(866.9230769230769,6) rotate(322) translate(0,8)" font-family="ui-sans-serif, system-ui, &quot;Segoe UI&quot;, Roboto, Helvetica, Arial, sans-serif" font-size="10px" fill="#57534e" opacity="1">May 29</text><text text-anchor="end" transform="translate(902.3076923076924,6) rotate(322) translate(0,8)" font-family="ui-sans-serif, system-ui, &quot;Segoe UI&quot;, Roboto, Helvetica, Arial, sans-serif" font-size="10px" fill="#57534e" opacity="0">May 30</text></g></g><path class="foreground" aria-hidden="true" d="" pointer-events="none" display="none"/></g></g><g class="mark-group role-axis" role="graphics-symbol" aria-roledescription="axis" aria-label="Y-axis titled 'Cumulative count' for a linear scale with values from 0 to 120"><g transform="translate(0.5,0.5)"><path class="background" aria-hidden="true" d="M0,0h0v0h0Z" pointer-events="none"/><g><g class="mark-rule role-axis-tick" pointer-events="none"><line transform="translate(0,380)" x2="-5" y2="0" stroke="#d6d3d1" stroke-width="1" opacity="1"/><line transform="translate(0,348)" x2="-5" y2="0" stroke="#d6d3d1" stroke-width="1" opacity="1"/><line transform="translate(0,317)" x2="-5" y2="0" stroke="#d6d3d1" stroke-width="1" opacity="1"/><line transform="translate(0,285)" x2="-5" y2="0" stroke="#d6d3d1" stroke-width="1" opacity="1"/><line transform="translate(0,253)" x2="-5" y2="0" stroke="#d6d3d1" stroke-width="1" opacity="1"/><line transform="translate(0,222)" x2="-5" y2="0" stroke="#d6d3d1" stroke-width="1" opacity="1"/><line transform="translate(0,190)" x2="-5" y2="0" stroke="#d6d3d1" stroke-width="1" opacity="1"/><line transform="translate(0,158)" x2="-5" y2="0" stroke="#d6d3d1" stroke-width="1" opacity="1"/><line transform="translate(0,127)" x2="-5" y2="0" stroke="#d6d3d1" stroke-width="1" opacity="1"/><line transform="translate(0,95)" x2="-5" y2="0" stroke="#d6d3d1" stroke-width="1" opacity="1"/><line transform="translate(0,63)" x2="-5" y2="0" stroke="#d6d3d1" stroke-width="1" opacity="1"/><line transform="translate(0,32)" x2="-5" y2="0" stroke="#d6d3d1" stroke-width="1" opacity="1"/><line transform="translate(0,0)" x2="-5" y2="0" stroke="#d6d3d1" stroke-width="1" opacity="1"/></g><g class="mark-text role-axis-label" pointer-events="none"><text text-anchor="end" transform="translate(-7,383)" font-family="ui-sans-serif, system-ui, &quot;Segoe UI&quot;, Roboto, Helvetica, Arial, sans-serif" font-size="10px" fill="#57534e" opacity="1">0</text><text text-anchor="end" transform="translate(-7,351.3333333333333)" font-family="ui-sans-serif, system-ui, &quot;Segoe UI&quot;, Roboto, Helvetica, Arial, sans-serif" font-size="10px" fill="#57534e" opacity="1">10</text><text text-anchor="end" transform="translate(-7,319.6666666666667)" font-family="ui-sans-serif, system-ui, &quot;Segoe UI&quot;, Roboto, Helvetica, Arial, sans-serif" font-size="10px" fill="#57534e" opacity="1">20</text><text text-anchor="end" transform="translate(-7,288)" font-family="ui-sans-serif, system-ui, &quot;Segoe UI&quot;, Roboto, Helvetica, Arial, sans-serif" font-size="10px" fill="#57534e" opacity="1">30</text><text text-anchor="end" transform="translate(-7,256.33333333333337)" font-family="ui-sans-serif, system-ui, &quot;Segoe UI&quot;, Roboto, Helvetica, Arial, sans-serif" font-size="10px" fill="#57534e" opacity="1">40</text><text text-anchor="end" transform="translate(-7,224.66666666666663)" font-family="ui-sans-serif, system-ui, &quot;Segoe UI&quot;, Roboto, Helvetica, Arial, sans-serif" font-size="10px" fill="#57534e" opacity="1">50</text><text text-anchor="end" transform="translate(-7,193)" font-family="ui-sans-serif, system-ui, &quot;Segoe UI&quot;, Roboto, Helvetica, Arial, sans-serif" font-size="10px" fill="#57534e" opacity="1">60</text><text text-anchor="end" transform="translate(-7,161.33333333333331)" font-family="ui-sans-serif, system-ui, &quot;Segoe UI&quot;, Roboto, Helvetica, Arial, sans-serif" font-size="10px" fill="#57534e" opacity="1">70</text><text text-anchor="end" transform="translate(-7,129.66666666666669)" font-family="ui-sans-serif, system-ui, &quot;Segoe UI&quot;, Roboto, Helvetica, Arial, sans-serif" font-size="10px" fill="#57534e" opacity="1">80</text><text text-anchor="end" transform="translate(-7,98)" font-family="ui-sans-serif, system-ui, &quot;Segoe UI&quot;, Roboto, Helvetica, Arial, sans-serif" font-size="10px" fill="#57534e" opacity="1">90</text><text text-anchor="end" transform="translate(-7,66.33333333333331)" font-family="ui-sans-serif, system-ui, &quot;Segoe UI&quot;, Roboto, Helvetica, Arial, sans-serif" font-size="10px" fill="#57534e" opacity="1">100</text><text text-anchor="end" transform="translate(-7,34.666666666666686)" font-family="ui-sans-serif, system-ui, &quot;Segoe UI&quot;, Roboto, Helvetica, Arial, sans-serif" font-size="10px" fill="#57534e" opacity="1">110</text><text text-anchor="end" transform="translate(-7,3)" font-family="ui-sans-serif, system-ui, &quot;Segoe UI&quot;, Roboto, Helvetica, Arial, sans-serif" font-size="10px" fill="#57534e" opacity="1">120</text></g><g class="mark-rule role-axis-domain" pointer-events="none"><line transform="translate(0,380)" x2="0" y2="-380" stroke="#d6d3d1" stroke-width="1" opacity="1"/></g><g class="mark-text role-axis-title" pointer-events="none"><text text-anchor="middle" transform="translate(-35,190) rotate(-90) translate(0,-2)" font-family="ui-sans-serif, system-ui, &quot;Segoe UI&quot;, Roboto, Helvetica, Arial, sans-serif" font-size="11px" font-weight="bold" fill="#44403c" opacity="1">Cumulative count</text></g></g><path class="foreground" aria-hidden="true" d="" pointer-events="none" display="none"/></g></g><g class="mark-group role-scope layer_0_pathgroup" role="graphics-object" aria-roledescription="group mark container"><g transform="translate(0,0)"><path class="background" aria-hidden="true" d="M0,0h920v380h-920Z"/><g><g class="mark-line role-mark layer_0_marks" role="graphics-object" aria-roledescription="line mark container"><path aria-label="calendar_day: 2026-05-05; Cumulative count: 15; series: Labels" role="graphics-symbol" aria-roledescription="line mark" d="M17.692,332.5L53.077,332.5L53.077,307.167L88.462,307.167L88.462,307.167L123.846,307.167L123.846,256.5L159.231,256.5L159.231,256.5L194.615,256.5L194.615,199.5L230,199.5L230,199.5L265.385,199.5L265.385,199.5L300.769,199.5L300.769,199.5L336.154,199.5L336.154,136.167L371.538,136.167L371.538,136.167L406.923,136.167L406.923,136.167L442.308,136.167L442.308,136.167L477.692,136.167L477.692,136.167L513.077,136.167L513.077,136.167L548.462,136.167L548.462,136.167L583.846,136.167L583.846,136.167L619.231,136.167L619.231,136.167L654.615,136.167L654.615,136.167L690,136.167L690,136.167L725.385,136.167L725.385,136.167L760.769,136.167L760.769,136.167L796.154,136.167L796.154,136.167L831.538,136.167L831.538,136.167L866.923,136.167L866.923,136.167L902.308,136.167L902.308,136.167" stroke="#7c3aed" stroke-width="2.5" stroke-linecap="round" stroke-linejoin="round"/></g></g><path class="foreground" aria-hidden="true" d="" display="none"/></g><g transform="translate(0,0)"><path class="background" aria-hidden="true" d="M0,0h920v380h-920Z"/><g><g class="mark-line role-mark layer_0_marks" role="graphics-object" aria-roledescription="line mark container"><path aria-label="calendar_day: 2026-05-05; Cumulative count: 2; series: Scans" role="graphics-symbol" aria-roledescription="line mark" d="M17.692,373.667L53.077,373.667L53.077,367.333L88.462,367.333L88.462,357.833L123.846,357.833L123.846,351.5L159.231,351.5L159.231,319.833L194.615,319.833L194.615,291.333L230,291.333L230,253.333L265.385,253.333L265.385,224.833L300.769,224.833L300.769,199.5L336.154,199.5L336.154,164.667L371.538,164.667L371.538,148.833L406.923,148.833L406.923,126.667L442.308,126.667L442.308,117.167L477.692,117.167L477.692,101.333L513.077,101.333L513.077,98.167L548.462,98.167L548.462,72.833L583.846,72.833L583.846,53.833L619.231,53.833L619.231,44.333L654.615,44.333L654.615,31.667L690,31.667L690,28.5L725.385,28.5L725.385,25.333L760.769,25.333L760.769,19L796.154,19L796.154,19L831.538,19L831.538,19L866.923,19L866.923,15.833L902.308,15.833L902.308,15.833" stroke="#15803d" stroke-width="2.5" stroke-linecap="round" stroke-linejoin="round"/></g></g><path class="foreground" aria-hidden="true" d="" display="none"/></g></g><g class="mark-symbol role-mark layer_1_marks" role="graphics-object" aria-roledescription="symbol mark container"><path aria-label="calendar_day: 2026-05-05; Cumulative count: 15; series: Labels" role="graphics-symbol" aria-roledescription="point" transform="translate(17.69230769230768,332.5)" d="M4.61,0A4.61,4.61,0,1,1,-4.61,0A4.61,4.61,0,1,1,4.61,0" fill="#7c3aed" stroke="#faf7f2" stroke-width="2" opacity="1"/><path aria-label="calendar_day: 2026-05-05; Cumulative count: 2; series: Scans" role="graphics-symbol" aria-roledescription="point" transform="translate(17.69230769230768,373.66666666666663)" d="M4.61,0A4.61,4.61,0,1,1,-4.61,0A4.61,4.61,0,1,1,4.61,0" fill="#15803d" stroke="#faf7f2" stroke-width="2" opacity="1"/><path aria-label="calendar_day: 2026-05-06; Cumulative count: 23; series: Labels" role="graphics-symbol" aria-roledescription="point" transform="translate(53.076923076923066,307.1666666666667)" d="M4.61,0A4.61,4.61,0,1,1,-4.61,0A4.61,4.61,0,1,1,4.61,0" fill="#7c3aed" stroke="#faf7f2" stroke-width="2" opacity="1"/><path aria-label="calendar_day: 2026-05-06; Cumulative count: 4; series: Scans" role="graphics-symbol" aria-roledescription="point" transform="translate(53.076923076923066,367.3333333333333)" d="M4.61,0A4.61,4.61,0,1,1,-4.61,0A4.61,4.61,0,1,1,4.61,0" fill="#15803d" stroke="#faf7f2" stroke-width="2" opacity="1"/><path aria-label="calendar_day: 2026-05-07; Cumulative count: 23; series: Labels" role="graphics-symbol" aria-roledescription="point" transform="translate(88.46153846153845,307.1666666666667)" d="M4.61,0A4.61,4.61,0,1,1,-4.61,0A4.61,4.61,0,1,1,4.61,0" fill="#7c3aed" stroke="#faf7f2" stroke-width="2" opacity="1"/><path aria-label="calendar_day: 2026-05-07; Cumulative count: 7; series: Scans" role="graphics-symbol" aria-roledescription="point" transform="translate(88.46153846153845,357.8333333333333)" d="M4.61,0A4.61,4.61,0,1,1,-4.61,0A4.61,4.61,0,1,1,4.61,0" fill="#15803d" stroke="#faf7f2" stroke-width="2" opacity="1"/><path aria-label="calendar_day: 2026-05-08; Cumulative count: 39; series: Labels" role="graphics-symbol" aria-roledescription="point" transform="translate(123.84615384615384,256.5)" d="M4.61,0A4.61,4.61,0,1,1,-4.61,0A4.61,4.61,0,1,1,4.61,0" fill="#7c3aed" stroke="#faf7f2" stroke-width="2" opacity="1"/><path aria-label="calendar_day: 2026-05-08; Cumulative count: 9; series: Scans" role="graphics-symbol" aria-roledescription="point" transform="translate(123.84615384615384,351.5)" d="M4.61,0A4.61,4.61,0,1,1,-4.61,0A4.61,4.61,0,1,1,4.61,0" fill="#15803d" stroke="#faf7f2" stroke-width="2" opacity="1"/><path aria-label="calendar_day: 2026-05-09; Cumulative count: 39; series: Labels" role="graphics-symbol" aria-roledescription="point" transform="translate(159.23076923076923,256.5)" d="M4.61,0A4.61,4.61,0,1,1,-4.61,0A4.61,4.61,0,1,1,4.61,0" fill="#7c3aed" stroke="#faf7f2" stroke-width="2" opacity="1"/><path aria-label="calendar_day: 2026-05-09; Cumulative count: 19; series: Scans" role="graphics-symbol" aria-roledescription="point" transform="translate(159.23076923076923,319.8333333333333)" d="M4.61,0A4.61,4.61,0,1,1,-4.61,0A4.61,4.61,0,1,1,4.61,0" fill="#15803d" stroke="#faf7f2" stroke-width="2" opacity="1"/><path aria-label="calendar_day: 2026-05-10; Cumulative count: 57; series: Labels" role="graphics-symbol" aria-roledescription="point" transform="translate(194.6153846153846,199.5)" d="M4.61,0A4.61,4.61,0,1,1,-4.61,0A4.61,4.61,0,1,1,4.61,0" fill="#7c3aed" stroke="#faf7f2" stroke-width="2" opacity="1"/><path aria-label="calendar_day: 2026-05-10; Cumulative count: 28; series: Scans" role="graphics-symbol" aria-roledescription="point" transform="translate(194.6153846153846,291.3333333333333)" d="M4.61,0A4.61,4.61,0,1,1,-4.61,0A4.61,4.61,0,1,1,4.61,0" fill="#15803d" stroke="#faf7f2" stroke-width="2" opacity="1"/><path aria-label="calendar_day: 2026-05-11; Cumulative count: 57; series: Labels" role="graphics-symbol" aria-roledescription="point" transform="translate(230,199.5)" d="M4.61,0A4.61,4.61,0,1,1,-4.61,0A4.61,4.61,0,1,1,4.61,0" fill="#7c3aed" stroke="#faf7f2" stroke-width="2" opacity="1"/><path aria-label="calendar_day: 2026-05-11; Cumulative count: 40; series: Scans" role="graphics-symbol" aria-roledescription="point" transform="translate(230,253.33333333333337)" d="M4.61,0A4.61,4.61,0,1,1,-4.61,0A4.61,4.61,0,1,1,4.61,0" fill="#15803d" stroke="#faf7f2" stroke-width="2" opacity="1"/><path aria-label="calendar_day: 2026-05-12; Cumulative count: 57; series: Labels" role="graphics-symbol" aria-roledescription="point" transform="translate(265.38461538461536,199.5)" d="M4.61,0A4.61,4.61,0,1,1,-4.61,0A4.61,4.61,0,1,1,4.61,0" fill="#7c3aed" stroke="#faf7f2" stroke-width="2" opacity="1"/><path aria-label="calendar_day: 2026-05-12; Cumulative count: 49; series: Scans" role="graphics-symbol" aria-roledescription="point" transform="translate(265.38461538461536,224.83333333333334)" d="M4.61,0A4.61,4.61,0,1,1,-4.61,0A4.61,4.61,0,1,1,4.61,0" fill="#15803d" stroke="#faf7f2" stroke-width="2" opacity="1"/><path aria-label="calendar_day: 2026-05-13; Cumulative count: 57; series: Labels" role="graphics-symbol" aria-roledescription="point" transform="translate(300.7692307692308,199.5)" d="M4.61,0A4.61,4.61,0,1,1,-4.61,0A4.61,4.61,0,1,1,4.61,0" fill="#7c3aed" stroke="#faf7f2" stroke-width="2" opacity="1"/><path aria-label="calendar_day: 2026-05-13; Cumulative count: 57; series: Scans" role="graphics-symbol" aria-roledescription="point" transform="translate(300.7692307692308,199.5)" d="M4.61,0A4.61,4.61,0,1,1,-4.61,0A4.61,4.61,0,1,1,4.61,0" fill="#15803d" stroke="#faf7f2" stroke-width="2" opacity="1"/><path aria-label="calendar_day: 2026-05-14; Cumulative count: 77; series: Labels" role="graphics-symbol" aria-roledescription="point" transform="translate(336.15384615384613,136.16666666666666)" d="M4.61,0A4.61,4.61,0,1,1,-4.61,0A4.61,4.61,0,1,1,4.61,0" fill="#7c3aed" stroke="#faf7f2" stroke-width="2" opacity="1"/><path aria-label="calendar_day: 2026-05-14; Cumulative count: 68; series: Scans" role="graphics-symbol" aria-roledescription="point" transform="translate(336.15384615384613,164.66666666666669)" d="M4.61,0A4.61,4.61,0,1,1,-4.61,0A4.61,4.61,0,1,1,4.61,0" fill="#15803d" stroke="#faf7f2" stroke-width="2" opacity="1"/><path aria-label="calendar_day: 2026-05-15; Cumulative count: 77; series: Labels" role="graphics-symbol" aria-roledescription="point" transform="translate(371.53846153846155,136.16666666666666)" d="M4.61,0A4.61,4.61,0,1,1,-4.61,0A4.61,4.61,0,1,1,4.61,0" fill="#7c3aed" stroke="#faf7f2" stroke-width="2" opacity="1"/><path aria-label="calendar_day: 2026-05-15; Cumulative count: 73; series: Scans" role="graphics-symbol" aria-roledescription="point" transform="translate(371.53846153846155,148.83333333333334)" d="M4.61,0A4.61,4.61,0,1,1,-4.61,0A4.61,4.61,0,1,1,4.61,0" fill="#15803d" stroke="#faf7f2" stroke-width="2" opacity="1"/><path aria-label="calendar_day: 2026-05-16; Cumulative count: 77; series: Labels" role="graphics-symbol" aria-roledescription="point" transform="translate(406.92307692307696,136.16666666666666)" d="M4.61,0A4.61,4.61,0,1,1,-4.61,0A4.61,4.61,0,1,1,4.61,0" fill="#7c3aed" stroke="#faf7f2" stroke-width="2" opacity="1"/><path aria-label="calendar_day: 2026-05-16; Cumulative count: 80; series: Scans" role="graphics-symbol" aria-roledescription="point" transform="translate(406.92307692307696,126.66666666666669)" d="M4.61,0A4.61,4.61,0,1,1,-4.61,0A4.61,4.61,0,1,1,4.61,0" fill="#15803d" stroke="#faf7f2" stroke-width="2" opacity="1"/><path aria-label="calendar_day: 2026-05-17; Cumulative count: 77; series: Labels" role="graphics-symbol" aria-roledescription="point" transform="translate(442.3076923076923,136.16666666666666)" d="M4.61,0A4.61,4.61,0,1,1,-4.61,0A4.61,4.61,0,1,1,4.61,0" fill="#7c3aed" stroke="#faf7f2" stroke-width="2" opacity="1"/><path aria-label="calendar_day: 2026-05-17; Cumulative count: 83; series: Scans" role="graphics-symbol" aria-roledescription="point" transform="translate(442.3076923076923,117.16666666666667)" d="M4.61,0A4.61,4.61,0,1,1,-4.61,0A4.61,4.61,0,1,1,4.61,0" fill="#15803d" stroke="#faf7f2" stroke-width="2" opacity="1"/><path aria-label="calendar_day: 2026-05-18; Cumulative count: 77; series: Labels" role="graphics-symbol" aria-roledescription="point" transform="translate(477.6923076923077,136.16666666666666)" d="M4.61,0A4.61,4.61,0,1,1,-4.61,0A4.61,4.61,0,1,1,4.61,0" fill="#7c3aed" stroke="#faf7f2" stroke-width="2" opacity="1"/><path aria-label="calendar_day: 2026-05-18; Cumulative count: 88; series: Scans" role="graphics-symbol" aria-roledescription="point" transform="translate(477.6923076923077,101.33333333333336)" d="M4.61,0A4.61,4.61,0,1,1,-4.61,0A4.61,4.61,0,1,1,4.61,0" fill="#15803d" stroke="#faf7f2" stroke-width="2" opacity="1"/><path aria-label="calendar_day: 2026-05-19; Cumulative count: 77; series: Labels" role="graphics-symbol" aria-roledescription="point" transform="translate(513.0769230769231,136.16666666666666)" d="M4.61,0A4.61,4.61,0,1,1,-4.61,0A4.61,4.61,0,1,1,4.61,0" fill="#7c3aed" stroke="#faf7f2" stroke-width="2" opacity="1"/><path aria-label="calendar_day: 2026-05-19; Cumulative count: 89; series: Scans" role="graphics-symbol" aria-roledescription="point" transform="translate(513.0769230769231,98.16666666666666)" d="M4.61,0A4.61,4.61,0,1,1,-4.61,0A4.61,4.61,0,1,1,4.61,0" fill="#15803d" stroke="#faf7f2" stroke-width="2" opacity="1"/><path aria-label="calendar_day: 2026-05-20; Cumulative count: 77; series: Labels" role="graphics-symbol" aria-roledescription="point" transform="translate(548.4615384615386,136.16666666666666)" d="M4.61,0A4.61,4.61,0,1,1,-4.61,0A4.61,4.61,0,1,1,4.61,0" fill="#7c3aed" stroke="#faf7f2" stroke-width="2" opacity="1"/><path aria-label="calendar_day: 2026-05-20; Cumulative count: 97; series: Scans" role="graphics-symbol" aria-roledescription="point" transform="translate(548.4615384615386,72.83333333333333)" d="M4.61,0A4.61,4.61,0,1,1,-4.61,0A4.61,4.61,0,1,1,4.61,0" fill="#15803d" stroke="#faf7f2" stroke-width="2" opacity="1"/><path aria-label="calendar_day: 2026-05-21; Cumulative count: 77; series: Labels" role="graphics-symbol" aria-roledescription="point" transform="translate(583.8461538461538,136.16666666666666)" d="M4.61,0A4.61,4.61,0,1,1,-4.61,0A4.61,4.61,0,1,1,4.61,0" fill="#7c3aed" stroke="#faf7f2" stroke-width="2" opacity="1"/><path aria-label="calendar_day: 2026-05-21; Cumulative count: 103; series: Scans" role="graphics-symbol" aria-roledescription="point" transform="translate(583.8461538461538,53.83333333333335)" d="M4.61,0A4.61,4.61,0,1,1,-4.61,0A4.61,4.61,0,1,1,4.61,0" fill="#15803d" stroke="#faf7f2" stroke-width="2" opacity="1"/><path aria-label="calendar_day: 2026-05-22; Cumulative count: 77; series: Labels" role="graphics-symbol" aria-roledescription="point" transform="translate(619.2307692307693,136.16666666666666)" d="M4.61,0A4.61,4.61,0,1,1,-4.61,0A4.61,4.61,0,1,1,4.61,0" fill="#7c3aed" stroke="#faf7f2" stroke-width="2" opacity="1"/><path aria-label="calendar_day: 2026-05-22; Cumulative count: 106; series: Scans" role="graphics-symbol" aria-roledescription="point" transform="translate(619.2307692307693,44.33333333333334)" d="M4.61,0A4.61,4.61,0,1,1,-4.61,0A4.61,4.61,0,1,1,4.61,0" fill="#15803d" stroke="#faf7f2" stroke-width="2" opacity="1"/><path aria-label="calendar_day: 2026-05-23; Cumulative count: 77; series: Labels" role="graphics-symbol" aria-roledescription="point" transform="translate(654.6153846153845,136.16666666666666)" d="M4.61,0A4.61,4.61,0,1,1,-4.61,0A4.61,4.61,0,1,1,4.61,0" fill="#7c3aed" stroke="#faf7f2" stroke-width="2" opacity="1"/><path aria-label="calendar_day: 2026-05-23; Cumulative count: 110; series: Scans" role="graphics-symbol" aria-roledescription="point" transform="translate(654.6153846153845,31.666666666666682)" d="M4.61,0A4.61,4.61,0,1,1,-4.61,0A4.61,4.61,0,1,1,4.61,0" fill="#15803d" stroke="#faf7f2" stroke-width="2" opacity="1"/><path aria-label="calendar_day: 2026-05-24; Cumulative count: 77; series: Labels" role="graphics-symbol" aria-roledescription="point" transform="translate(690,136.16666666666666)" d="M4.61,0A4.61,4.61,0,1,1,-4.61,0A4.61,4.61,0,1,1,4.61,0" fill="#7c3aed" stroke="#faf7f2" stroke-width="2" opacity="1"/><path aria-label="calendar_day: 2026-05-24; Cumulative count: 111; series: Scans" role="graphics-symbol" aria-roledescription="point" transform="translate(690,28.499999999999982)" d="M4.61,0A4.61,4.61,0,1,1,-4.61,0A4.61,4.61,0,1,1,4.61,0" fill="#15803d" stroke="#faf7f2" stroke-width="2" opacity="1"/><path aria-label="calendar_day: 2026-05-25; Cumulative count: 77; series: Labels" role="graphics-symbol" aria-roledescription="point" transform="translate(725.3846153846155,136.16666666666666)" d="M4.61,0A4.61,4.61,0,1,1,-4.61,0A4.61,4.61,0,1,1,4.61,0" fill="#7c3aed" stroke="#faf7f2" stroke-width="2" opacity="1"/><path aria-label="calendar_day: 2026-05-25; Cumulative count: 112; series: Scans" role="graphics-symbol" aria-roledescription="point" transform="translate(725.3846153846155,25.33333333333333)" d="M4.61,0A4.61,4.61,0,1,1,-4.61,0A4.61,4.61,0,1,1,4.61,0" fill="#15803d" stroke="#faf7f2" stroke-width="2" opacity="1"/><path aria-label="calendar_day: 2026-05-26; Cumulative count: 77; series: Labels" role="graphics-symbol" aria-roledescription="point" transform="translate(760.7692307692307,136.16666666666666)" d="M4.61,0A4.61,4.61,0,1,1,-4.61,0A4.61,4.61,0,1,1,4.61,0" fill="#7c3aed" stroke="#faf7f2" stroke-width="2" opacity="1"/><path aria-label="calendar_day: 2026-05-26; Cumulative count: 114; series: Scans" role="graphics-symbol" aria-roledescription="point" transform="translate(760.7692307692307,19.000000000000018)" d="M4.61,0A4.61,4.61,0,1,1,-4.61,0A4.61,4.61,0,1,1,4.61,0" fill="#15803d" stroke="#faf7f2" stroke-width="2" opacity="1"/><path aria-label="calendar_day: 2026-05-27; Cumulative count: 77; series: Labels" role="graphics-symbol" aria-roledescription="point" transform="translate(796.1538461538462,136.16666666666666)" d="M4.61,0A4.61,4.61,0,1,1,-4.61,0A4.61,4.61,0,1,1,4.61,0" fill="#7c3aed" stroke="#faf7f2" stroke-width="2" opacity="1"/><path aria-label="calendar_day: 2026-05-27; Cumulative count: 114; series: Scans" role="graphics-symbol" aria-roledescription="point" transform="translate(796.1538461538462,19.000000000000018)" d="M4.61,0A4.61,4.61,0,1,1,-4.61,0A4.61,4.61,0,1,1,4.61,0" fill="#15803d" stroke="#faf7f2" stroke-width="2" opacity="1"/><path aria-label="calendar_day: 2026-05-28; Cumulative count: 77; series: Labels" role="graphics-symbol" aria-roledescription="point" transform="translate(831.5384615384617,136.16666666666666)" d="M4.61,0A4.61,4.61,0,1,1,-4.61,0A4.61,4.61,0,1,1,4.61,0" fill="#7c3aed" stroke="#faf7f2" stroke-width="2" opacity="1"/><path aria-label="calendar_day: 2026-05-28; Cumulative count: 114; series: Scans" role="graphics-symbol" aria-roledescription="point" transform="translate(831.5384615384617,19.000000000000018)" d="M4.61,0A4.61,4.61,0,1,1,-4.61,0A4.61,4.61,0,1,1,4.61,0" fill="#15803d" stroke="#faf7f2" stroke-width="2" opacity="1"/><path aria-label="calendar_day: 2026-05-29; Cumulative count: 77; series: Labels" role="graphics-symbol" aria-roledescription="point" transform="translate(866.9230769230769,136.16666666666666)" d="M4.61,0A4.61,4.61,0,1,1,-4.61,0A4.61,4.61,0,1,1,4.61,0" fill="#7c3aed" stroke="#faf7f2" stroke-width="2" opacity="1"/><path aria-label="calendar_day: 2026-05-29; Cumulative count: 115; series: Scans" role="graphics-symbol" aria-roledescription="point" transform="translate(866.9230769230769,15.83333333333332)" d="M4.61,0A4.61,4.61,0,1,1,-4.61,0A4.61,4.61,0,1,1,4.61,0" fill="#15803d" stroke="#faf7f2" stroke-width="2" opacity="1"/><path aria-label="calendar_day: 2026-05-30; Cumulative count: 77; series: Labels" role="graphics-symbol" aria-roledescription="point" transform="translate(902.3076923076924,136.16666666666666)" d="M4.61,0A4.61,4.61,0,1,1,-4.61,0A4.61,4.61,0,1,1,4.61,0" fill="#7c3aed" stroke="#faf7f2" stroke-width="2" opacity="1"/><path aria-label="calendar_day: 2026-05-30; Cumulative count: 115; series: Scans" role="graphics-symbol" aria-roledescription="point" transform="translate(902.3076923076924,15.83333333333332)" d="M4.61,0A4.61,4.61,0,1,1,-4.61,0A4.61,4.61,0,1,1,4.61,0" fill="#15803d" stroke="#faf7f2" stroke-width="2" opacity="1"/></g><g class="mark-group role-legend" role="graphics-symbol" aria-roledescription="legend" aria-label="Symbol legend for fill color and stroke color with 2 values: Labels, Scans"><g transform="translate(0,-15)"><path class="background" aria-hidden="true" d="M0,0h151v13h-151Z" pointer-events="none"/><g><g class="mark-group role-legend-entry"><g transform="translate(0,0)"><path class="background" aria-hidden="true" d="M0,0h0v0h0Z" pointer-events="none"/><g><g class="mark-group role-scope" role="graphics-object" aria-roledescription="group mark container"><g transform="translate(0,0.25)"><path class="background" aria-hidden="true" d="M0,0h74v12.5h-74Z" pointer-events="none" opacity="1"/><g><g class="mark-symbol role-legend-symbol" pointer-events="none"><path transform="translate(6.5,6.5)" d="M-5,0L5,0" fill="#7c3aed" stroke="#7c3aed" stroke-width="3" stroke-linejoin="round" opacity="1"/></g><g class="mark-text role-legend-label" pointer-events="none"><text text-anchor="start" transform="translate(17,10.5)" font-family="ui-sans-serif, system-ui, &quot;Segoe UI&quot;, Roboto, Helvetica, Arial, sans-serif" font-size="12px" fill="#000" opacity="1">Labels</text></g></g><path class="foreground" aria-hidden="true" d="" pointer-events="none" display="none"/></g><g transform="translate(86,0.25)"><path class="background" aria-hidden="true" d="M0,0h65v12.5h-65Z" pointer-events="none" opacity="1"/><g><g class="mark-symbol role-legend-symbol" pointer-events="none"><path transform="translate(6.5,6.5)" d="M-5,0L5,0" fill="#15803d" stroke="#15803d" stroke-width="3" stroke-linejoin="round" opacity="1"/></g><g class="mark-text role-legend-label" pointer-events="none"><text text-anchor="start" transform="translate(17,10.5)" font-family="ui-sans-serif, system-ui, &quot;Segoe UI&quot;, Roboto, Helvetica, Arial, sans-serif" font-size="12px" fill="#000" opacity="1">Scans</text></g></g><path class="foreground" aria-hidden="true" d="" pointer-events="none" display="none"/></g></g></g><path class="foreground" aria-hidden="true" d="" pointer-events="none" display="none"/></g></g></g><path class="foreground" aria-hidden="true" d="" pointer-events="none" display="none"/></g></g><g class="mark-group role-title"><g transform="translate(0,-41)"><path class="background" aria-hidden="true" d="M0,0h0v0h0Z" pointer-events="none"/><g><g class="mark-text role-title-text" role="graphics-symbol" aria-roledescription="title" aria-label="Title text 'QR Code Tracking in Berwyn, IL'" pointer-events="none"><text text-anchor="start" transform="translate(0,16)" font-family="ui-sans-serif, system-ui, &quot;Segoe UI&quot;, Roboto, Helvetica, Arial, sans-serif" font-size="20px" font-weight="650" fill="#292524" opacity="1">QR Code Tracking in Berwyn, IL</text></g></g><path class="foreground" aria-hidden="true" d="" pointer-events="none" display="none"/></g></g></g><path class="foreground" aria-hidden="true" d="" display="none"/></g></g></g></svg>